<?xml version="1.0" encoding="utf-8" standalone="no"?>
<!DOCTYPE svg PUBLIC "-//W3C//DTD SVG 1.1//EN"
  "http://www.w3.org/Graphics/SVG/1.1/DTD/svg11.dtd">
<svg xmlns:xlink="http://www.w3.org/1999/xlink" width="733.215303pt" height="332.39952pt" viewBox="0 0 733.215303 332.39952" xmlns="http://www.w3.org/2000/svg" version="1.1">
 <metadata>
  <rdf:RDF xmlns:dc="http://purl.org/dc/elements/1.1/" xmlns:cc="http://creativecommons.org/ns#" xmlns:rdf="http://www.w3.org/1999/02/22-rdf-syntax-ns#">
   <cc:Work>
    <dc:type rdf:resource="http://purl.org/dc/dcmitype/StillImage"/>
    <dc:date>2026-07-20</dc:date>
    <dc:format>image/svg+xml</dc:format>
    <dc:creator>
     <cc:Agent>
      <dc:title>Matplotlib</dc:title>
     </cc:Agent>
    </dc:creator>
   </cc:Work>
  </rdf:RDF>
 </metadata>
 <defs>
  <style type="text/css">*{stroke-linejoin: round; stroke-linecap: butt}</style>
 </defs>
 <g id="figure_1">
  <g id="patch_1">
   <path d="M 0 332.39952 
L 733.215303 332.39952 
L 733.215303 0 
L 0 0 
z
" style="fill: #ffffff"/>
  </g>
  <g id="axes_1">
   <g id="patch_2">
    <path d="M 22.17625 310.19952 
L 281.296071 310.19952 
L 281.296071 51.079699 
L 22.17625 51.079699 
z
" style="fill: #f8fafc"/>
   </g>
   <g id="matplotlib.axis_1">
    <g id="xtick_1">
     <g id="line2d_1">
      <path d="M 52.074691 310.19952 
L 52.074691 51.079699 
" clip-path="url(#p6bbe528121)" style="fill: none; stroke: #cbd5e1; stroke-opacity: 0.8; stroke-width: 0.8; stroke-linecap: square"/>
     </g>
     <g id="line2d_2">
      <defs>
       <path id="me20dc4bc32" d="M 0 0 
L 0 3.5 
" style="stroke: #64748b; stroke-width: 0.8"/>
      </defs>
      <g>
       <use xlink:href="#me20dc4bc32" x="52.074691" y="310.19952" style="fill: #64748b; stroke: #64748b; stroke-width: 0.8"/>
      </g>
     </g>
     <g id="text_1">
      <!-- -2 -->
      <g style="fill: #64748b" transform="translate(48.086566 323.277645) scale(0.08 -0.08)">
       <defs>
        <path id="DejaVuSans-10" d="M 313 2009 
L 1997 2009 
L 1997 1497 
L 313 1497 
L 313 2009 
z
" transform="scale(0.015625)"/>
        <path id="DejaVuSans-15" d="M 1228 531 
L 3431 531 
L 3431 0 
L 469 0 
L 469 531 
Q 828 903 1448 1529 
Q 2069 2156 2228 2338 
Q 2531 2678 2651 2914 
Q 2772 3150 2772 3378 
Q 2772 3750 2511 3984 
Q 2250 4219 1831 4219 
Q 1534 4219 1204 4116 
Q 875 4013 500 3803 
L 500 4441 
Q 881 4594 1212 4672 
Q 1544 4750 1819 4750 
Q 2544 4750 2975 4387 
Q 3406 4025 3406 3419 
Q 3406 3131 3298 2873 
Q 3191 2616 2906 2266 
Q 2828 2175 2409 1742 
Q 1991 1309 1228 531 
z
" transform="scale(0.015625)"/>
       </defs>
       <use xlink:href="#DejaVuSans-10"/>
       <use xlink:href="#DejaVuSans-15" transform="translate(36.078125 0)"/>
      </g>
     </g>
    </g>
    <g id="xtick_2">
     <g id="line2d_3">
      <path d="M 101.905426 310.19952 
L 101.905426 51.079699 
" clip-path="url(#p6bbe528121)" style="fill: none; stroke: #cbd5e1; stroke-opacity: 0.8; stroke-width: 0.8; stroke-linecap: square"/>
     </g>
     <g id="line2d_4">
      <g>
       <use xlink:href="#me20dc4bc32" x="101.905426" y="310.19952" style="fill: #64748b; stroke: #64748b; stroke-width: 0.8"/>
      </g>
     </g>
     <g id="text_2">
      <!-- -1 -->
      <g style="fill: #64748b" transform="translate(97.917301 323.277645) scale(0.08 -0.08)">
       <defs>
        <path id="DejaVuSans-14" d="M 794 531 
L 1825 531 
L 1825 4091 
L 703 3866 
L 703 4441 
L 1819 4666 
L 2450 4666 
L 2450 531 
L 3481 531 
L 3481 0 
L 794 0 
L 794 531 
z
" transform="scale(0.015625)"/>
       </defs>
       <use xlink:href="#DejaVuSans-10"/>
       <use xlink:href="#DejaVuSans-14" transform="translate(36.078125 0)"/>
      </g>
     </g>
    </g>
    <g id="xtick_3">
     <g id="line2d_5">
      <path d="M 151.736161 310.19952 
L 151.736161 51.079699 
" clip-path="url(#p6bbe528121)" style="fill: none; stroke: #cbd5e1; stroke-opacity: 0.8; stroke-width: 0.8; stroke-linecap: square"/>
     </g>
     <g id="line2d_6">
      <g>
       <use xlink:href="#me20dc4bc32" x="151.736161" y="310.19952" style="fill: #64748b; stroke: #64748b; stroke-width: 0.8"/>
      </g>
     </g>
     <g id="text_3">
      <!-- 0 -->
      <g style="fill: #64748b" transform="translate(149.191161 323.277645) scale(0.08 -0.08)">
       <defs>
        <path id="DejaVuSans-13" d="M 2034 4250 
Q 1547 4250 1301 3770 
Q 1056 3291 1056 2328 
Q 1056 1369 1301 889 
Q 1547 409 2034 409 
Q 2525 409 2770 889 
Q 3016 1369 3016 2328 
Q 3016 3291 2770 3770 
Q 2525 4250 2034 4250 
z
M 2034 4750 
Q 2819 4750 3233 4129 
Q 3647 3509 3647 2328 
Q 3647 1150 3233 529 
Q 2819 -91 2034 -91 
Q 1250 -91 836 529 
Q 422 1150 422 2328 
Q 422 3509 836 4129 
Q 1250 4750 2034 4750 
z
" transform="scale(0.015625)"/>
       </defs>
       <use xlink:href="#DejaVuSans-13"/>
      </g>
     </g>
    </g>
    <g id="xtick_4">
     <g id="line2d_7">
      <path d="M 201.566895 310.19952 
L 201.566895 51.079699 
" clip-path="url(#p6bbe528121)" style="fill: none; stroke: #cbd5e1; stroke-opacity: 0.8; stroke-width: 0.8; stroke-linecap: square"/>
     </g>
     <g id="line2d_8">
      <g>
       <use xlink:href="#me20dc4bc32" x="201.566895" y="310.19952" style="fill: #64748b; stroke: #64748b; stroke-width: 0.8"/>
      </g>
     </g>
     <g id="text_4">
      <!-- 1 -->
      <g style="fill: #64748b" transform="translate(199.021895 323.277645) scale(0.08 -0.08)">
       <use xlink:href="#DejaVuSans-14"/>
      </g>
     </g>
    </g>
    <g id="xtick_5">
     <g id="line2d_9">
      <path d="M 251.39763 310.19952 
L 251.39763 51.079699 
" clip-path="url(#p6bbe528121)" style="fill: none; stroke: #cbd5e1; stroke-opacity: 0.8; stroke-width: 0.8; stroke-linecap: square"/>
     </g>
     <g id="line2d_10">
      <g>
       <use xlink:href="#me20dc4bc32" x="251.39763" y="310.19952" style="fill: #64748b; stroke: #64748b; stroke-width: 0.8"/>
      </g>
     </g>
     <g id="text_5">
      <!-- 2 -->
      <g style="fill: #64748b" transform="translate(248.85263 323.277645) scale(0.08 -0.08)">
       <use xlink:href="#DejaVuSans-15"/>
      </g>
     </g>
    </g>
   </g>
   <g id="matplotlib.axis_2">
    <g id="ytick_1">
     <g id="line2d_11">
      <path d="M 22.17625 280.301079 
L 281.296071 280.301079 
" clip-path="url(#p6bbe528121)" style="fill: none; stroke: #cbd5e1; stroke-opacity: 0.8; stroke-width: 0.8; stroke-linecap: square"/>
     </g>
     <g id="line2d_12">
      <defs>
       <path id="m742b1148e1" d="M 0 0 
L -3.5 0 
" style="stroke: #64748b; stroke-width: 0.8"/>
      </defs>
      <g>
       <use xlink:href="#m742b1148e1" x="22.17625" y="280.301079" style="fill: #64748b; stroke: #64748b; stroke-width: 0.8"/>
      </g>
     </g>
     <g id="text_6">
      <!-- -2 -->
      <g style="fill: #64748b" transform="translate(7.2 283.340142) scale(0.08 -0.08)">
       <use xlink:href="#DejaVuSans-10"/>
       <use xlink:href="#DejaVuSans-15" transform="translate(36.078125 0)"/>
      </g>
     </g>
    </g>
    <g id="ytick_2">
     <g id="line2d_13">
      <path d="M 22.17625 230.470344 
L 281.296071 230.470344 
" clip-path="url(#p6bbe528121)" style="fill: none; stroke: #cbd5e1; stroke-opacity: 0.8; stroke-width: 0.8; stroke-linecap: square"/>
     </g>
     <g id="line2d_14">
      <g>
       <use xlink:href="#m742b1148e1" x="22.17625" y="230.470344" style="fill: #64748b; stroke: #64748b; stroke-width: 0.8"/>
      </g>
     </g>
     <g id="text_7">
      <!-- -1 -->
      <g style="fill: #64748b" transform="translate(7.2 233.509407) scale(0.08 -0.08)">
       <use xlink:href="#DejaVuSans-10"/>
       <use xlink:href="#DejaVuSans-14" transform="translate(36.078125 0)"/>
      </g>
     </g>
    </g>
    <g id="ytick_3">
     <g id="line2d_15">
      <path d="M 22.17625 180.639609 
L 281.296071 180.639609 
" clip-path="url(#p6bbe528121)" style="fill: none; stroke: #cbd5e1; stroke-opacity: 0.8; stroke-width: 0.8; stroke-linecap: square"/>
     </g>
     <g id="line2d_16">
      <g>
       <use xlink:href="#m742b1148e1" x="22.17625" y="180.639609" style="fill: #64748b; stroke: #64748b; stroke-width: 0.8"/>
      </g>
     </g>
     <g id="text_8">
      <!-- 0 -->
      <g style="fill: #64748b" transform="translate(10.08625 183.678672) scale(0.08 -0.08)">
       <use xlink:href="#DejaVuSans-13"/>
      </g>
     </g>
    </g>
    <g id="ytick_4">
     <g id="line2d_17">
      <path d="M 22.17625 130.808875 
L 281.296071 130.808875 
" clip-path="url(#p6bbe528121)" style="fill: none; stroke: #cbd5e1; stroke-opacity: 0.8; stroke-width: 0.8; stroke-linecap: square"/>
     </g>
     <g id="line2d_18">
      <g>
       <use xlink:href="#m742b1148e1" x="22.17625" y="130.808875" style="fill: #64748b; stroke: #64748b; stroke-width: 0.8"/>
      </g>
     </g>
     <g id="text_9">
      <!-- 1 -->
      <g style="fill: #64748b" transform="translate(10.08625 133.847937) scale(0.08 -0.08)">
       <use xlink:href="#DejaVuSans-14"/>
      </g>
     </g>
    </g>
    <g id="ytick_5">
     <g id="line2d_19">
      <path d="M 22.17625 80.97814 
L 281.296071 80.97814 
" clip-path="url(#p6bbe528121)" style="fill: none; stroke: #cbd5e1; stroke-opacity: 0.8; stroke-width: 0.8; stroke-linecap: square"/>
     </g>
     <g id="line2d_20">
      <g>
       <use xlink:href="#m742b1148e1" x="22.17625" y="80.97814" style="fill: #64748b; stroke: #64748b; stroke-width: 0.8"/>
      </g>
     </g>
     <g id="text_10">
      <!-- 2 -->
      <g style="fill: #64748b" transform="translate(10.08625 84.017202) scale(0.08 -0.08)">
       <use xlink:href="#DejaVuSans-15"/>
      </g>
     </g>
    </g>
   </g>
   <g id="line2d_21">
    <path d="M 22.17625 180.639609 
L 281.296071 180.639609 
" clip-path="url(#p6bbe528121)" style="fill: none; stroke: #64748b; stroke-width: 1.3; stroke-linecap: square"/>
   </g>
   <g id="line2d_22">
    <path d="M 151.736161 310.19952 
L 151.736161 51.079699 
" clip-path="url(#p6bbe528121)" style="fill: none; stroke: #64748b; stroke-width: 1.3; stroke-linecap: square"/>
   </g>
   <g id="patch_3">
    <path d="M 22.17625 310.19952 
L 22.17625 51.079699 
" style="fill: none; stroke: #cbd5e1; stroke-width: 0.8; stroke-linejoin: miter; stroke-linecap: square"/>
   </g>
   <g id="patch_4">
    <path d="M 281.296071 310.19952 
L 281.296071 51.079699 
" style="fill: none; stroke: #cbd5e1; stroke-width: 0.8; stroke-linejoin: miter; stroke-linecap: square"/>
   </g>
   <g id="patch_5">
    <path d="M 22.17625 310.19952 
L 281.296071 310.19952 
" style="fill: none; stroke: #cbd5e1; stroke-width: 0.8; stroke-linejoin: miter; stroke-linecap: square"/>
   </g>
   <g id="patch_6">
    <path d="M 22.17625 51.079699 
L 281.296071 51.079699 
" style="fill: none; stroke: #cbd5e1; stroke-width: 0.8; stroke-linejoin: miter; stroke-linecap: square"/>
   </g>
   <g id="text_11">
    <!-- Before: standard coordinates -->
    <g transform="translate(44.186551 39.079699) scale(0.13 -0.13)">
     <defs>
      <path id="DejaVuSans-Bold-25" d="M 2456 2859 
Q 2741 2859 2887 2984 
Q 3034 3109 3034 3353 
Q 3034 3594 2887 3720 
Q 2741 3847 2456 3847 
L 1791 3847 
L 1791 2859 
L 2456 2859 
z
M 2497 819 
Q 2859 819 3042 972 
Q 3225 1125 3225 1434 
Q 3225 1738 3044 1889 
Q 2863 2041 2497 2041 
L 1791 2041 
L 1791 819 
L 2497 819 
z
M 3616 2497 
Q 4003 2384 4215 2081 
Q 4428 1778 4428 1338 
Q 4428 663 3972 331 
Q 3516 0 2584 0 
L 588 0 
L 588 4666 
L 2394 4666 
Q 3366 4666 3802 4372 
Q 4238 4078 4238 3431 
Q 4238 3091 4078 2852 
Q 3919 2613 3616 2497 
z
" transform="scale(0.015625)"/>
      <path id="DejaVuSans-Bold-48" d="M 4031 1759 
L 4031 1441 
L 1416 1441 
Q 1456 1047 1700 850 
Q 1944 653 2381 653 
Q 2734 653 3104 758 
Q 3475 863 3866 1075 
L 3866 213 
Q 3469 63 3072 -14 
Q 2675 -91 2278 -91 
Q 1328 -91 801 392 
Q 275 875 275 1747 
Q 275 2603 792 3093 
Q 1309 3584 2216 3584 
Q 3041 3584 3536 3087 
Q 4031 2591 4031 1759 
z
M 2881 2131 
Q 2881 2450 2695 2645 
Q 2509 2841 2209 2841 
Q 1884 2841 1681 2658 
Q 1478 2475 1428 2131 
L 2881 2131 
z
" transform="scale(0.015625)"/>
      <path id="DejaVuSans-Bold-49" d="M 2841 4863 
L 2841 4128 
L 2222 4128 
Q 1984 4128 1890 4042 
Q 1797 3956 1797 3744 
L 1797 3500 
L 2753 3500 
L 2753 2700 
L 1797 2700 
L 1797 0 
L 678 0 
L 678 2700 
L 122 2700 
L 122 3500 
L 678 3500 
L 678 3744 
Q 678 4316 997 4589 
Q 1316 4863 1984 4863 
L 2841 4863 
z
" transform="scale(0.015625)"/>
      <path id="DejaVuSans-Bold-52" d="M 2203 2784 
Q 1831 2784 1636 2517 
Q 1441 2250 1441 1747 
Q 1441 1244 1636 976 
Q 1831 709 2203 709 
Q 2569 709 2762 976 
Q 2956 1244 2956 1747 
Q 2956 2250 2762 2517 
Q 2569 2784 2203 2784 
z
M 2203 3584 
Q 3106 3584 3614 3096 
Q 4122 2609 4122 1747 
Q 4122 884 3614 396 
Q 3106 -91 2203 -91 
Q 1297 -91 786 396 
Q 275 884 275 1747 
Q 275 2609 786 3096 
Q 1297 3584 2203 3584 
z
" transform="scale(0.015625)"/>
      <path id="DejaVuSans-Bold-55" d="M 3138 2547 
Q 2991 2616 2845 2648 
Q 2700 2681 2553 2681 
Q 2122 2681 1889 2404 
Q 1656 2128 1656 1613 
L 1656 0 
L 538 0 
L 538 3500 
L 1656 3500 
L 1656 2925 
Q 1872 3269 2151 3426 
Q 2431 3584 2822 3584 
Q 2878 3584 2943 3579 
Q 3009 3575 3134 3559 
L 3138 2547 
z
" transform="scale(0.015625)"/>
      <path id="DejaVuSans-Bold-1d" d="M 716 3500 
L 1844 3500 
L 1844 2291 
L 716 2291 
L 716 3500 
z
M 716 1209 
L 1844 1209 
L 1844 0 
L 716 0 
L 716 1209 
z
" transform="scale(0.015625)"/>
      <path id="DejaVuSans-Bold-3" transform="scale(0.015625)"/>
      <path id="DejaVuSans-Bold-56" d="M 3272 3391 
L 3272 2541 
Q 2913 2691 2578 2766 
Q 2244 2841 1947 2841 
Q 1628 2841 1473 2761 
Q 1319 2681 1319 2516 
Q 1319 2381 1436 2309 
Q 1553 2238 1856 2203 
L 2053 2175 
Q 2913 2066 3209 1816 
Q 3506 1566 3506 1031 
Q 3506 472 3093 190 
Q 2681 -91 1863 -91 
Q 1516 -91 1145 -36 
Q 775 19 384 128 
L 384 978 
Q 719 816 1070 734 
Q 1422 653 1784 653 
Q 2113 653 2278 743 
Q 2444 834 2444 1013 
Q 2444 1163 2330 1236 
Q 2216 1309 1875 1350 
L 1678 1375 
Q 931 1469 631 1722 
Q 331 1975 331 2491 
Q 331 3047 712 3315 
Q 1094 3584 1881 3584 
Q 2191 3584 2531 3537 
Q 2872 3491 3272 3391 
z
" transform="scale(0.015625)"/>
      <path id="DejaVuSans-Bold-57" d="M 1759 4494 
L 1759 3500 
L 2913 3500 
L 2913 2700 
L 1759 2700 
L 1759 1216 
Q 1759 972 1856 886 
Q 1953 800 2241 800 
L 2816 800 
L 2816 0 
L 1856 0 
Q 1194 0 917 276 
Q 641 553 641 1216 
L 641 2700 
L 84 2700 
L 84 3500 
L 641 3500 
L 641 4494 
L 1759 4494 
z
" transform="scale(0.015625)"/>
      <path id="DejaVuSans-Bold-44" d="M 2106 1575 
Q 1756 1575 1579 1456 
Q 1403 1338 1403 1106 
Q 1403 894 1545 773 
Q 1688 653 1941 653 
Q 2256 653 2472 879 
Q 2688 1106 2688 1447 
L 2688 1575 
L 2106 1575 
z
M 3816 1997 
L 3816 0 
L 2688 0 
L 2688 519 
Q 2463 200 2181 54 
Q 1900 -91 1497 -91 
Q 953 -91 614 226 
Q 275 544 275 1050 
Q 275 1666 698 1953 
Q 1122 2241 2028 2241 
L 2688 2241 
L 2688 2328 
Q 2688 2594 2478 2717 
Q 2269 2841 1825 2841 
Q 1466 2841 1156 2769 
Q 847 2697 581 2553 
L 581 3406 
Q 941 3494 1303 3539 
Q 1666 3584 2028 3584 
Q 2975 3584 3395 3211 
Q 3816 2838 3816 1997 
z
" transform="scale(0.015625)"/>
      <path id="DejaVuSans-Bold-51" d="M 4056 2131 
L 4056 0 
L 2931 0 
L 2931 347 
L 2931 1631 
Q 2931 2084 2911 2256 
Q 2891 2428 2841 2509 
Q 2775 2619 2662 2680 
Q 2550 2741 2406 2741 
Q 2056 2741 1856 2470 
Q 1656 2200 1656 1722 
L 1656 0 
L 538 0 
L 538 3500 
L 1656 3500 
L 1656 2988 
Q 1909 3294 2193 3439 
Q 2478 3584 2822 3584 
Q 3428 3584 3742 3212 
Q 4056 2841 4056 2131 
z
" transform="scale(0.015625)"/>
      <path id="DejaVuSans-Bold-47" d="M 2919 2988 
L 2919 4863 
L 4044 4863 
L 4044 0 
L 2919 0 
L 2919 506 
Q 2688 197 2409 53 
Q 2131 -91 1766 -91 
Q 1119 -91 703 423 
Q 288 938 288 1747 
Q 288 2556 703 3070 
Q 1119 3584 1766 3584 
Q 2128 3584 2408 3439 
Q 2688 3294 2919 2988 
z
M 2181 722 
Q 2541 722 2730 984 
Q 2919 1247 2919 1747 
Q 2919 2247 2730 2509 
Q 2541 2772 2181 2772 
Q 1825 2772 1636 2509 
Q 1447 2247 1447 1747 
Q 1447 1247 1636 984 
Q 1825 722 2181 722 
z
" transform="scale(0.015625)"/>
      <path id="DejaVuSans-Bold-46" d="M 3366 3391 
L 3366 2478 
Q 3138 2634 2908 2709 
Q 2678 2784 2431 2784 
Q 1963 2784 1702 2511 
Q 1441 2238 1441 1747 
Q 1441 1256 1702 982 
Q 1963 709 2431 709 
Q 2694 709 2930 787 
Q 3166 866 3366 1019 
L 3366 103 
Q 3103 6 2833 -42 
Q 2563 -91 2291 -91 
Q 1344 -91 809 395 
Q 275 881 275 1747 
Q 275 2613 809 3098 
Q 1344 3584 2291 3584 
Q 2566 3584 2833 3536 
Q 3100 3488 3366 3391 
z
" transform="scale(0.015625)"/>
      <path id="DejaVuSans-Bold-4c" d="M 538 3500 
L 1656 3500 
L 1656 0 
L 538 0 
L 538 3500 
z
M 538 4863 
L 1656 4863 
L 1656 3950 
L 538 3950 
L 538 4863 
z
" transform="scale(0.015625)"/>
     </defs>
     <use xlink:href="#DejaVuSans-Bold-25"/>
     <use xlink:href="#DejaVuSans-Bold-48" transform="translate(76.21875 0)"/>
     <use xlink:href="#DejaVuSans-Bold-49" transform="translate(144.046875 0)"/>
     <use xlink:href="#DejaVuSans-Bold-52" transform="translate(187.546875 0)"/>
     <use xlink:href="#DejaVuSans-Bold-55" transform="translate(256.25 0)"/>
     <use xlink:href="#DejaVuSans-Bold-48" transform="translate(305.5625 0)"/>
     <use xlink:href="#DejaVuSans-Bold-1d" transform="translate(373.390625 0)"/>
     <use xlink:href="#DejaVuSans-Bold-3" transform="translate(413.375 0)"/>
     <use xlink:href="#DejaVuSans-Bold-56" transform="translate(448.1875 0)"/>
     <use xlink:href="#DejaVuSans-Bold-57" transform="translate(507.703125 0)"/>
     <use xlink:href="#DejaVuSans-Bold-44" transform="translate(555.5 0)"/>
     <use xlink:href="#DejaVuSans-Bold-51" transform="translate(622.984375 0)"/>
     <use xlink:href="#DejaVuSans-Bold-47" transform="translate(694.171875 0)"/>
     <use xlink:href="#DejaVuSans-Bold-44" transform="translate(765.75 0)"/>
     <use xlink:href="#DejaVuSans-Bold-55" transform="translate(833.234375 0)"/>
     <use xlink:href="#DejaVuSans-Bold-47" transform="translate(882.546875 0)"/>
     <use xlink:href="#DejaVuSans-Bold-3" transform="translate(954.125 0)"/>
     <use xlink:href="#DejaVuSans-Bold-46" transform="translate(988.9375 0)"/>
     <use xlink:href="#DejaVuSans-Bold-52" transform="translate(1048.21875 0)"/>
     <use xlink:href="#DejaVuSans-Bold-52" transform="translate(1116.921875 0)"/>
     <use xlink:href="#DejaVuSans-Bold-55" transform="translate(1185.625 0)"/>
     <use xlink:href="#DejaVuSans-Bold-47" transform="translate(1234.9375 0)"/>
     <use xlink:href="#DejaVuSans-Bold-4c" transform="translate(1306.515625 0)"/>
     <use xlink:href="#DejaVuSans-Bold-51" transform="translate(1340.796875 0)"/>
     <use xlink:href="#DejaVuSans-Bold-44" transform="translate(1411.984375 0)"/>
     <use xlink:href="#DejaVuSans-Bold-57" transform="translate(1479.46875 0)"/>
     <use xlink:href="#DejaVuSans-Bold-48" transform="translate(1527.265625 0)"/>
     <use xlink:href="#DejaVuSans-Bold-56" transform="translate(1595.09375 0)"/>
    </g>
   </g>
   <g id="patch_7">
    <path d="M 153.734378 180.639609 
Q 176.65072 180.639609 196.436567 180.639609 
" style="fill: none; stroke: #2563eb; stroke-width: 2.8; stroke-linecap: round"/>
    <path d="M 190.436567 177.639609 
L 196.436567 180.639609 
L 190.436567 183.639609 
z
" style="fill: #2563eb; stroke: #2563eb; stroke-width: 2.8; stroke-linecap: round"/>
   </g>
   <g id="patch_8">
    <path d="M 151.736161 178.641392 
Q 151.736161 155.72505 151.736161 135.939203 
" style="fill: none; stroke: #ea580c; stroke-width: 2.8; stroke-linecap: round"/>
    <path d="M 148.736161 141.939203 
L 151.736161 135.939203 
L 154.736161 141.939203 
z
" style="fill: #ea580c; stroke: #ea580c; stroke-width: 2.8; stroke-linecap: round"/>
   </g>
   <g id="text_12">
    <!-- $\mathbf{e}_1$ -->
    <g style="fill: #2563eb" transform="translate(184.143065 174.639609) scale(0.11 -0.11)">
     <use xlink:href="#DejaVuSans-Bold-48"/>
     <use xlink:href="#DejaVuSans-14" transform="translate(68.779297 -14.999951) scale(0.7)"/>
    </g>
   </g>
   <g id="text_13">
    <!-- $\mathbf{e}_2$ -->
    <g style="fill: #ea580c" transform="translate(156.736161 147.232705) scale(0.11 -0.11)">
     <use xlink:href="#DejaVuSans-Bold-48"/>
     <use xlink:href="#DejaVuSans-15" transform="translate(68.779297 -14.999951) scale(0.7)"/>
    </g>
   </g>
   <g id="PathCollection_1">
    <defs>
     <path id="md6db7647ca" d="M 0 2.44949 
C 0.649612 2.44949 1.272706 2.191396 1.732051 1.732051 
C 2.191396 1.272706 2.44949 0.649612 2.44949 0 
C 2.44949 -0.649612 2.191396 -1.272706 1.732051 -1.732051 
C 1.272706 -2.191396 0.649612 -2.44949 0 -2.44949 
C -0.649612 -2.44949 -1.272706 -2.191396 -1.732051 -1.732051 
C -2.191396 -1.272706 -2.44949 -0.649612 -2.44949 0 
C -2.44949 0.649612 -2.191396 1.272706 -1.732051 1.732051 
C -1.272706 2.191396 -0.649612 2.44949 0 2.44949 
z
" style="stroke: #334155"/>
    </defs>
    <g clip-path="url(#p6bbe528121)">
     <use xlink:href="#md6db7647ca" x="151.736161" y="180.639609" style="fill: #334155; stroke: #334155"/>
    </g>
   </g>
  </g>
  <g id="axes_2">
   <g id="patch_9">
    <path d="M 385.920538 310.19952 
L 726.015303 310.19952 
L 726.015303 51.079699 
L 385.920538 51.079699 
z
" style="fill: #f8fafc"/>
   </g>
   <g id="line2d_23">
    <path d="M 288.750605 204.932093 
L 494.682698 -1 
L 494.682698 -1 
" clip-path="url(#p247b69e38a)" style="fill: none; stroke: #cbd5e1; stroke-width: 0.75; stroke-linecap: square"/>
   </g>
   <g id="line2d_24">
    <path d="M 264.458122 156.347126 
L 618.562909 333.39952 
L 618.562909 333.39952 
" clip-path="url(#p247b69e38a)" style="fill: none; stroke: #cbd5e1; stroke-width: 0.75; stroke-linecap: square"/>
   </g>
   <g id="line2d_25">
    <path d="M 329.238077 225.175829 
L 539.772932 14.640974 
L 539.772932 14.640974 
" clip-path="url(#p247b69e38a)" style="fill: none; stroke: #cbd5e1; stroke-width: 0.75; stroke-linecap: square"/>
   </g>
   <g id="line2d_26">
    <path d="M 284.701858 136.10339 
L 679.294118 333.39952 
L 679.294118 333.39952 
" clip-path="url(#p247b69e38a)" style="fill: none; stroke: #cbd5e1; stroke-width: 0.75; stroke-linecap: square"/>
   </g>
   <g id="line2d_27">
    <path d="M 369.725549 245.419565 
L 580.260404 34.88471 
L 580.260404 34.88471 
" clip-path="url(#p247b69e38a)" style="fill: none; stroke: #cbd5e1; stroke-width: 0.75; stroke-linecap: square"/>
   </g>
   <g id="line2d_28">
    <path d="M 304.945594 115.859654 
L 726.015303 326.394509 
L 726.015303 326.394509 
" clip-path="url(#p247b69e38a)" style="fill: none; stroke: #cbd5e1; stroke-width: 0.75; stroke-linecap: square"/>
   </g>
   <g id="line2d_29">
    <path d="M 410.213021 265.663301 
L 620.747876 55.128446 
L 620.747876 55.128446 
" clip-path="url(#p247b69e38a)" style="fill: none; stroke: #cbd5e1; stroke-width: 0.75; stroke-linecap: square"/>
   </g>
   <g id="line2d_30">
    <path d="M 325.18933 95.615918 
L 734.215303 300.128905 
L 734.215303 300.128905 
" clip-path="url(#p247b69e38a)" style="fill: none; stroke: #cbd5e1; stroke-width: 0.75; stroke-linecap: square"/>
   </g>
   <g id="line2d_31">
    <path d="M 450.700493 285.907037 
L 661.235348 75.372182 
L 661.235348 75.372182 
" clip-path="url(#p247b69e38a)" style="fill: none; stroke: #cbd5e1; stroke-width: 0.75; stroke-linecap: square"/>
   </g>
   <g id="line2d_32">
    <path d="M 345.433066 75.372182 
L 734.215303 269.763301 
L 734.215303 269.763301 
" clip-path="url(#p247b69e38a)" style="fill: none; stroke: #cbd5e1; stroke-width: 0.75; stroke-linecap: square"/>
   </g>
   <g id="line2d_33">
    <path d="M 491.187965 306.150773 
L 701.72282 95.615918 
L 701.72282 95.615918 
" clip-path="url(#p247b69e38a)" style="fill: none; stroke: #cbd5e1; stroke-width: 0.75; stroke-linecap: square"/>
   </g>
   <g id="line2d_34">
    <path d="M 365.676802 55.128446 
L 734.215303 239.397697 
L 734.215303 239.397697 
" clip-path="url(#p247b69e38a)" style="fill: none; stroke: #cbd5e1; stroke-width: 0.75; stroke-linecap: square"/>
   </g>
   <g id="line2d_35">
    <path d="M 531.675437 326.394509 
L 734.215303 123.854643 
L 734.215303 123.854643 
" clip-path="url(#p247b69e38a)" style="fill: none; stroke: #cbd5e1; stroke-width: 0.75; stroke-linecap: square"/>
   </g>
   <g id="line2d_36">
    <path d="M 385.920538 34.88471 
L 734.215303 209.032093 
L 734.215303 209.032093 
" clip-path="url(#p247b69e38a)" style="fill: none; stroke: #cbd5e1; stroke-width: 0.75; stroke-linecap: square"/>
   </g>
   <g id="line2d_37">
    <path d="M 585.401634 333.39952 
L 734.215303 184.585851 
L 734.215303 184.585851 
" clip-path="url(#p247b69e38a)" style="fill: none; stroke: #cbd5e1; stroke-width: 0.75; stroke-linecap: square"/>
   </g>
   <g id="line2d_38">
    <path d="M 406.164274 14.640974 
L 734.215303 178.666489 
L 734.215303 178.666489 
" clip-path="url(#p247b69e38a)" style="fill: none; stroke: #cbd5e1; stroke-width: 0.75; stroke-linecap: square"/>
   </g>
   <g id="line2d_39">
    <path d="M 646.132842 333.39952 
L 734.215303 245.317059 
L 734.215303 245.317059 
" clip-path="url(#p247b69e38a)" style="fill: none; stroke: #cbd5e1; stroke-width: 0.75; stroke-linecap: square"/>
   </g>
   <g id="line2d_40">
    <path d="M 435.613534 -1 
L 734.215303 148.300885 
L 734.215303 148.300885 
" clip-path="url(#p247b69e38a)" style="fill: none; stroke: #cbd5e1; stroke-width: 0.75; stroke-linecap: square"/>
   </g>
   <g id="matplotlib.axis_3">
    <g id="xtick_6">
     <g id="line2d_41">
      <g>
       <use xlink:href="#me20dc4bc32" x="394.018032" y="310.19952" style="fill: #64748b; stroke: #64748b; stroke-width: 0.8"/>
      </g>
     </g>
     <g id="text_14">
      <!-- -4 -->
      <g style="fill: #64748b" transform="translate(390.029907 323.277645) scale(0.08 -0.08)">
       <defs>
        <path id="DejaVuSans-17" d="M 2419 4116 
L 825 1625 
L 2419 1625 
L 2419 4116 
z
M 2253 4666 
L 3047 4666 
L 3047 1625 
L 3713 1625 
L 3713 1100 
L 3047 1100 
L 3047 0 
L 2419 0 
L 2419 1100 
L 313 1100 
L 313 1709 
L 2253 4666 
z
" transform="scale(0.015625)"/>
       </defs>
       <use xlink:href="#DejaVuSans-10"/>
       <use xlink:href="#DejaVuSans-17" transform="translate(36.078125 0)"/>
      </g>
     </g>
    </g>
    <g id="xtick_7">
     <g id="line2d_42">
      <g>
       <use xlink:href="#me20dc4bc32" x="434.505504" y="310.19952" style="fill: #64748b; stroke: #64748b; stroke-width: 0.8"/>
      </g>
     </g>
     <g id="text_15">
      <!-- -3 -->
      <g style="fill: #64748b" transform="translate(430.517379 323.277645) scale(0.08 -0.08)">
       <defs>
        <path id="DejaVuSans-16" d="M 2597 2516 
Q 3050 2419 3304 2112 
Q 3559 1806 3559 1356 
Q 3559 666 3084 287 
Q 2609 -91 1734 -91 
Q 1441 -91 1130 -33 
Q 819 25 488 141 
L 488 750 
Q 750 597 1062 519 
Q 1375 441 1716 441 
Q 2309 441 2620 675 
Q 2931 909 2931 1356 
Q 2931 1769 2642 2001 
Q 2353 2234 1838 2234 
L 1294 2234 
L 1294 2753 
L 1863 2753 
Q 2328 2753 2575 2939 
Q 2822 3125 2822 3475 
Q 2822 3834 2567 4026 
Q 2313 4219 1838 4219 
Q 1578 4219 1281 4162 
Q 984 4106 628 3988 
L 628 4550 
Q 988 4650 1302 4700 
Q 1616 4750 1894 4750 
Q 2613 4750 3031 4423 
Q 3450 4097 3450 3541 
Q 3450 3153 3228 2886 
Q 3006 2619 2597 2516 
z
" transform="scale(0.015625)"/>
       </defs>
       <use xlink:href="#DejaVuSans-10"/>
       <use xlink:href="#DejaVuSans-16" transform="translate(36.078125 0)"/>
      </g>
     </g>
    </g>
    <g id="xtick_8">
     <g id="line2d_43">
      <g>
       <use xlink:href="#me20dc4bc32" x="474.992976" y="310.19952" style="fill: #64748b; stroke: #64748b; stroke-width: 0.8"/>
      </g>
     </g>
     <g id="text_16">
      <!-- -2 -->
      <g style="fill: #64748b" transform="translate(471.004851 323.277645) scale(0.08 -0.08)">
       <use xlink:href="#DejaVuSans-10"/>
       <use xlink:href="#DejaVuSans-15" transform="translate(36.078125 0)"/>
      </g>
     </g>
    </g>
    <g id="xtick_9">
     <g id="line2d_44">
      <g>
       <use xlink:href="#me20dc4bc32" x="515.480449" y="310.19952" style="fill: #64748b; stroke: #64748b; stroke-width: 0.8"/>
      </g>
     </g>
     <g id="text_17">
      <!-- -1 -->
      <g style="fill: #64748b" transform="translate(511.492324 323.277645) scale(0.08 -0.08)">
       <use xlink:href="#DejaVuSans-10"/>
       <use xlink:href="#DejaVuSans-14" transform="translate(36.078125 0)"/>
      </g>
     </g>
    </g>
    <g id="xtick_10">
     <g id="line2d_45">
      <g>
       <use xlink:href="#me20dc4bc32" x="555.967921" y="310.19952" style="fill: #64748b; stroke: #64748b; stroke-width: 0.8"/>
      </g>
     </g>
     <g id="text_18">
      <!-- 0 -->
      <g style="fill: #64748b" transform="translate(553.422921 323.277645) scale(0.08 -0.08)">
       <use xlink:href="#DejaVuSans-13"/>
      </g>
     </g>
    </g>
    <g id="xtick_11">
     <g id="line2d_46">
      <g>
       <use xlink:href="#me20dc4bc32" x="596.455393" y="310.19952" style="fill: #64748b; stroke: #64748b; stroke-width: 0.8"/>
      </g>
     </g>
     <g id="text_19">
      <!-- 1 -->
      <g style="fill: #64748b" transform="translate(593.910393 323.277645) scale(0.08 -0.08)">
       <use xlink:href="#DejaVuSans-14"/>
      </g>
     </g>
    </g>
    <g id="xtick_12">
     <g id="line2d_47">
      <g>
       <use xlink:href="#me20dc4bc32" x="636.942865" y="310.19952" style="fill: #64748b; stroke: #64748b; stroke-width: 0.8"/>
      </g>
     </g>
     <g id="text_20">
      <!-- 2 -->
      <g style="fill: #64748b" transform="translate(634.397865 323.277645) scale(0.08 -0.08)">
       <use xlink:href="#DejaVuSans-15"/>
      </g>
     </g>
    </g>
    <g id="xtick_13">
     <g id="line2d_48">
      <g>
       <use xlink:href="#me20dc4bc32" x="677.430337" y="310.19952" style="fill: #64748b; stroke: #64748b; stroke-width: 0.8"/>
      </g>
     </g>
     <g id="text_21">
      <!-- 3 -->
      <g style="fill: #64748b" transform="translate(674.885337 323.277645) scale(0.08 -0.08)">
       <use xlink:href="#DejaVuSans-16"/>
      </g>
     </g>
    </g>
    <g id="xtick_14">
     <g id="line2d_49">
      <g>
       <use xlink:href="#me20dc4bc32" x="717.917809" y="310.19952" style="fill: #64748b; stroke: #64748b; stroke-width: 0.8"/>
      </g>
     </g>
     <g id="text_22">
      <!-- 4 -->
      <g style="fill: #64748b" transform="translate(715.372809 323.277645) scale(0.08 -0.08)">
       <use xlink:href="#DejaVuSans-17"/>
      </g>
     </g>
    </g>
   </g>
   <g id="matplotlib.axis_4">
    <g id="ytick_6">
     <g id="line2d_50">
      <g>
       <use xlink:href="#m742b1148e1" x="385.920538" y="302.102026" style="fill: #64748b; stroke: #64748b; stroke-width: 0.8"/>
      </g>
     </g>
     <g id="text_23">
      <!-- -3 -->
      <g style="fill: #64748b" transform="translate(370.944288 305.141088) scale(0.08 -0.08)">
       <use xlink:href="#DejaVuSans-10"/>
       <use xlink:href="#DejaVuSans-16" transform="translate(36.078125 0)"/>
      </g>
     </g>
    </g>
    <g id="ytick_7">
     <g id="line2d_51">
      <g>
       <use xlink:href="#m742b1148e1" x="385.920538" y="261.614554" style="fill: #64748b; stroke: #64748b; stroke-width: 0.8"/>
      </g>
     </g>
     <g id="text_24">
      <!-- -2 -->
      <g style="fill: #64748b" transform="translate(370.944288 264.653616) scale(0.08 -0.08)">
       <use xlink:href="#DejaVuSans-10"/>
       <use xlink:href="#DejaVuSans-15" transform="translate(36.078125 0)"/>
      </g>
     </g>
    </g>
    <g id="ytick_8">
     <g id="line2d_52">
      <g>
       <use xlink:href="#m742b1148e1" x="385.920538" y="221.127081" style="fill: #64748b; stroke: #64748b; stroke-width: 0.8"/>
      </g>
     </g>
     <g id="text_25">
      <!-- -1 -->
      <g style="fill: #64748b" transform="translate(370.944288 224.166144) scale(0.08 -0.08)">
       <use xlink:href="#DejaVuSans-10"/>
       <use xlink:href="#DejaVuSans-14" transform="translate(36.078125 0)"/>
      </g>
     </g>
    </g>
    <g id="ytick_9">
     <g id="line2d_53">
      <g>
       <use xlink:href="#m742b1148e1" x="385.920538" y="180.639609" style="fill: #64748b; stroke: #64748b; stroke-width: 0.8"/>
      </g>
     </g>
     <g id="text_26">
      <!-- 0 -->
      <g style="fill: #64748b" transform="translate(373.830538 183.678672) scale(0.08 -0.08)">
       <use xlink:href="#DejaVuSans-13"/>
      </g>
     </g>
    </g>
    <g id="ytick_10">
     <g id="line2d_54">
      <g>
       <use xlink:href="#m742b1148e1" x="385.920538" y="140.152137" style="fill: #64748b; stroke: #64748b; stroke-width: 0.8"/>
      </g>
     </g>
     <g id="text_27">
      <!-- 1 -->
      <g style="fill: #64748b" transform="translate(373.830538 143.1912) scale(0.08 -0.08)">
       <use xlink:href="#DejaVuSans-14"/>
      </g>
     </g>
    </g>
    <g id="ytick_11">
     <g id="line2d_55">
      <g>
       <use xlink:href="#m742b1148e1" x="385.920538" y="99.664665" style="fill: #64748b; stroke: #64748b; stroke-width: 0.8"/>
      </g>
     </g>
     <g id="text_28">
      <!-- 2 -->
      <g style="fill: #64748b" transform="translate(373.830538 102.703728) scale(0.08 -0.08)">
       <use xlink:href="#DejaVuSans-15"/>
      </g>
     </g>
    </g>
    <g id="ytick_12">
     <g id="line2d_56">
      <g>
       <use xlink:href="#m742b1148e1" x="385.920538" y="59.177193" style="fill: #64748b; stroke: #64748b; stroke-width: 0.8"/>
      </g>
     </g>
     <g id="text_29">
      <!-- 3 -->
      <g style="fill: #64748b" transform="translate(373.830538 62.216256) scale(0.08 -0.08)">
       <use xlink:href="#DejaVuSans-16"/>
      </g>
     </g>
    </g>
   </g>
   <g id="line2d_57">
    <path d="M 385.920538 180.639609 
L 726.015303 180.639609 
" clip-path="url(#p247b69e38a)" style="fill: none; stroke: #64748b; stroke-width: 1.3; stroke-linecap: square"/>
   </g>
   <g id="line2d_58">
    <path d="M 555.967921 310.19952 
L 555.967921 51.079699 
" clip-path="url(#p247b69e38a)" style="fill: none; stroke: #64748b; stroke-width: 1.3; stroke-linecap: square"/>
   </g>
   <g id="patch_10">
    <path d="M 385.920538 310.19952 
L 385.920538 51.079699 
" style="fill: none; stroke: #cbd5e1; stroke-width: 0.8; stroke-linejoin: miter; stroke-linecap: square"/>
   </g>
   <g id="patch_11">
    <path d="M 726.015303 310.19952 
L 726.015303 51.079699 
" style="fill: none; stroke: #cbd5e1; stroke-width: 0.8; stroke-linejoin: miter; stroke-linecap: square"/>
   </g>
   <g id="patch_12">
    <path d="M 385.920538 310.19952 
L 726.015303 310.19952 
" style="fill: none; stroke: #cbd5e1; stroke-width: 0.8; stroke-linejoin: miter; stroke-linecap: square"/>
   </g>
   <g id="patch_13">
    <path d="M 385.920538 51.079699 
L 726.015303 51.079699 
" style="fill: none; stroke: #cbd5e1; stroke-width: 0.8; stroke-linejoin: miter; stroke-linecap: square"/>
   </g>
   <g id="text_30">
    <!-- After: columns of the matrix -->
    <g transform="translate(451.966905 39.079699) scale(0.13 -0.13)">
     <defs>
      <path id="DejaVuSans-Bold-24" d="M 3419 850 
L 1538 850 
L 1241 0 
L 31 0 
L 1759 4666 
L 3194 4666 
L 4922 0 
L 3713 0 
L 3419 850 
z
M 1838 1716 
L 3116 1716 
L 2478 3572 
L 1838 1716 
z
" transform="scale(0.015625)"/>
      <path id="DejaVuSans-Bold-4f" d="M 538 4863 
L 1656 4863 
L 1656 0 
L 538 0 
L 538 4863 
z
" transform="scale(0.015625)"/>
      <path id="DejaVuSans-Bold-58" d="M 500 1363 
L 500 3500 
L 1625 3500 
L 1625 3150 
Q 1625 2866 1622 2436 
Q 1619 2006 1619 1863 
Q 1619 1441 1641 1255 
Q 1663 1069 1716 984 
Q 1784 875 1895 815 
Q 2006 756 2150 756 
Q 2500 756 2700 1025 
Q 2900 1294 2900 1772 
L 2900 3500 
L 4019 3500 
L 4019 0 
L 2900 0 
L 2900 506 
Q 2647 200 2364 54 
Q 2081 -91 1741 -91 
Q 1134 -91 817 281 
Q 500 653 500 1363 
z
" transform="scale(0.015625)"/>
      <path id="DejaVuSans-Bold-50" d="M 3781 2919 
Q 3994 3244 4286 3414 
Q 4578 3584 4928 3584 
Q 5531 3584 5847 3212 
Q 6163 2841 6163 2131 
L 6163 0 
L 5038 0 
L 5038 1825 
Q 5041 1866 5042 1909 
Q 5044 1953 5044 2034 
Q 5044 2406 4934 2573 
Q 4825 2741 4581 2741 
Q 4263 2741 4089 2478 
Q 3916 2216 3909 1719 
L 3909 0 
L 2784 0 
L 2784 1825 
Q 2784 2406 2684 2573 
Q 2584 2741 2328 2741 
Q 2006 2741 1831 2477 
Q 1656 2213 1656 1722 
L 1656 0 
L 531 0 
L 531 3500 
L 1656 3500 
L 1656 2988 
Q 1863 3284 2130 3434 
Q 2397 3584 2719 3584 
Q 3081 3584 3359 3409 
Q 3638 3234 3781 2919 
z
" transform="scale(0.015625)"/>
      <path id="DejaVuSans-Bold-4b" d="M 4056 2131 
L 4056 0 
L 2931 0 
L 2931 347 
L 2931 1625 
Q 2931 2084 2911 2256 
Q 2891 2428 2841 2509 
Q 2775 2619 2662 2680 
Q 2550 2741 2406 2741 
Q 2056 2741 1856 2470 
Q 1656 2200 1656 1722 
L 1656 0 
L 538 0 
L 538 4863 
L 1656 4863 
L 1656 2988 
Q 1909 3294 2193 3439 
Q 2478 3584 2822 3584 
Q 3428 3584 3742 3212 
Q 4056 2841 4056 2131 
z
" transform="scale(0.015625)"/>
      <path id="DejaVuSans-Bold-5b" d="M 1422 1791 
L 159 3500 
L 1344 3500 
L 2059 2463 
L 2784 3500 
L 3969 3500 
L 2706 1797 
L 4031 0 
L 2847 0 
L 2059 1106 
L 1281 0 
L 97 0 
L 1422 1791 
z
" transform="scale(0.015625)"/>
     </defs>
     <use xlink:href="#DejaVuSans-Bold-24"/>
     <use xlink:href="#DejaVuSans-Bold-49" transform="translate(77.390625 0)"/>
     <use xlink:href="#DejaVuSans-Bold-57" transform="translate(120.890625 0)"/>
     <use xlink:href="#DejaVuSans-Bold-48" transform="translate(168.6875 0)"/>
     <use xlink:href="#DejaVuSans-Bold-55" transform="translate(236.515625 0)"/>
     <use xlink:href="#DejaVuSans-Bold-1d" transform="translate(285.828125 0)"/>
     <use xlink:href="#DejaVuSans-Bold-3" transform="translate(325.8125 0)"/>
     <use xlink:href="#DejaVuSans-Bold-46" transform="translate(360.625 0)"/>
     <use xlink:href="#DejaVuSans-Bold-52" transform="translate(419.90625 0)"/>
     <use xlink:href="#DejaVuSans-Bold-4f" transform="translate(488.609375 0)"/>
     <use xlink:href="#DejaVuSans-Bold-58" transform="translate(522.890625 0)"/>
     <use xlink:href="#DejaVuSans-Bold-50" transform="translate(594.078125 0)"/>
     <use xlink:href="#DejaVuSans-Bold-51" transform="translate(698.28125 0)"/>
     <use xlink:href="#DejaVuSans-Bold-56" transform="translate(769.46875 0)"/>
     <use xlink:href="#DejaVuSans-Bold-3" transform="translate(828.984375 0)"/>
     <use xlink:href="#DejaVuSans-Bold-52" transform="translate(863.796875 0)"/>
     <use xlink:href="#DejaVuSans-Bold-49" transform="translate(932.5 0)"/>
     <use xlink:href="#DejaVuSans-Bold-3" transform="translate(976 0)"/>
     <use xlink:href="#DejaVuSans-Bold-57" transform="translate(1010.8125 0)"/>
     <use xlink:href="#DejaVuSans-Bold-4b" transform="translate(1058.609375 0)"/>
     <use xlink:href="#DejaVuSans-Bold-48" transform="translate(1129.796875 0)"/>
     <use xlink:href="#DejaVuSans-Bold-3" transform="translate(1197.625 0)"/>
     <use xlink:href="#DejaVuSans-Bold-50" transform="translate(1232.4375 0)"/>
     <use xlink:href="#DejaVuSans-Bold-44" transform="translate(1336.640625 0)"/>
     <use xlink:href="#DejaVuSans-Bold-57" transform="translate(1404.125 0)"/>
     <use xlink:href="#DejaVuSans-Bold-55" transform="translate(1451.921875 0)"/>
     <use xlink:href="#DejaVuSans-Bold-4c" transform="translate(1501.234375 0)"/>
     <use xlink:href="#DejaVuSans-Bold-5b" transform="translate(1535.515625 0)"/>
    </g>
   </g>
   <g id="patch_14">
    <path d="M 557.754569 181.532933 
Q 596.453353 200.882326 632.352138 218.831718 
" style="fill: none; stroke: #2563eb; stroke-width: 2.8; stroke-linecap: round"/>
    <path d="M 628.327216 213.465155 
L 632.352138 218.831718 
L 625.643934 218.831718 
z
" style="fill: #2563eb; stroke: #2563eb; stroke-width: 2.8; stroke-linecap: round"/>
   </g>
   <g id="patch_15">
    <path d="M 557.383895 179.223635 
Q 576.21257 160.39496 592.82765 143.77988 
" style="fill: none; stroke: #ea580c; stroke-width: 2.8; stroke-linecap: round"/>
    <path d="M 586.463689 145.9012 
L 592.82765 143.77988 
L 590.70633 150.143841 
z
" style="fill: #ea580c; stroke: #ea580c; stroke-width: 2.8; stroke-linecap: round"/>
   </g>
   <g id="text_31">
    <!-- $\mathbf{a}_1=A\mathbf{e}_1$ -->
    <g style="fill: #2563eb" transform="translate(605.50414 196.907719) scale(0.11 -0.11)">
     <defs>
      <path id="DejaVuSans-20" d="M 678 2906 
L 4684 2906 
L 4684 2381 
L 678 2381 
L 678 2906 
z
M 678 1631 
L 4684 1631 
L 4684 1100 
L 678 1100 
L 678 1631 
z
" transform="scale(0.015625)"/>
      <path id="DejaVuSans-Oblique-24" d="M 2356 4666 
L 3072 4666 
L 3938 0 
L 3278 0 
L 3084 1197 
L 984 1197 
L 325 0 
L -341 0 
L 2356 4666 
z
M 2584 4044 
L 1275 1722 
L 2988 1722 
L 2584 4044 
z
" transform="scale(0.015625)"/>
     </defs>
     <use xlink:href="#DejaVuSans-Bold-44" transform="translate(0 0.09375)"/>
     <use xlink:href="#DejaVuSans-14" transform="translate(68.4375 -14.906201) scale(0.7)"/>
     <use xlink:href="#DejaVuSans-20" transform="translate(135.19043 0.09375)"/>
     <use xlink:href="#DejaVuSans-Oblique-24" transform="translate(238.461914 0.09375)"/>
     <use xlink:href="#DejaVuSans-Bold-48" transform="translate(306.870117 0.09375)"/>
     <use xlink:href="#DejaVuSans-14" transform="translate(375.649414 -14.906201) scale(0.7)"/>
    </g>
   </g>
   <g id="text_32">
    <!-- $\mathbf{a}_2=A\mathbf{e}_2$ -->
    <g style="fill: #ea580c" transform="translate(583.23603 152.3715) scale(0.11 -0.11)">
     <use xlink:href="#DejaVuSans-Bold-44" transform="translate(0 0.09375)"/>
     <use xlink:href="#DejaVuSans-15" transform="translate(68.4375 -14.906201) scale(0.7)"/>
     <use xlink:href="#DejaVuSans-20" transform="translate(135.19043 0.09375)"/>
     <use xlink:href="#DejaVuSans-Oblique-24" transform="translate(238.461914 0.09375)"/>
     <use xlink:href="#DejaVuSans-Bold-48" transform="translate(306.870117 0.09375)"/>
     <use xlink:href="#DejaVuSans-15" transform="translate(375.649414 -14.906201) scale(0.7)"/>
    </g>
   </g>
   <g id="PathCollection_2">
    <g clip-path="url(#p247b69e38a)">
     <use xlink:href="#md6db7647ca" x="555.967921" y="180.639609" style="fill: #334155; stroke: #334155"/>
    </g>
   </g>
  </g>
  <g id="text_33">
   <!-- A matrix is determined by where the basis vectors go -->
   <g transform="translate(111.619541 19.3575) scale(0.16 -0.16)">
    <defs>
     <path id="DejaVuSans-Bold-45" d="M 2400 722 
Q 2759 722 2948 984 
Q 3138 1247 3138 1747 
Q 3138 2247 2948 2509 
Q 2759 2772 2400 2772 
Q 2041 2772 1848 2508 
Q 1656 2244 1656 1747 
Q 1656 1250 1848 986 
Q 2041 722 2400 722 
z
M 1656 2988 
Q 1888 3294 2169 3439 
Q 2450 3584 2816 3584 
Q 3463 3584 3878 3070 
Q 4294 2556 4294 1747 
Q 4294 938 3878 423 
Q 3463 -91 2816 -91 
Q 2450 -91 2169 54 
Q 1888 200 1656 506 
L 1656 0 
L 538 0 
L 538 4863 
L 1656 4863 
L 1656 2988 
z
" transform="scale(0.015625)"/>
     <path id="DejaVuSans-Bold-5c" d="M 78 3500 
L 1197 3500 
L 2138 1125 
L 2938 3500 
L 4056 3500 
L 2584 -331 
Q 2363 -916 2067 -1148 
Q 1772 -1381 1288 -1381 
L 641 -1381 
L 641 -647 
L 991 -647 
Q 1275 -647 1404 -556 
Q 1534 -466 1606 -231 
L 1638 -134 
L 78 3500 
z
" transform="scale(0.015625)"/>
     <path id="DejaVuSans-Bold-5a" d="M 225 3500 
L 1313 3500 
L 1900 1088 
L 2491 3500 
L 3425 3500 
L 4013 1113 
L 4603 3500 
L 5691 3500 
L 4769 0 
L 3547 0 
L 2956 2406 
L 2369 0 
L 1147 0 
L 225 3500 
z
" transform="scale(0.015625)"/>
     <path id="DejaVuSans-Bold-59" d="M 97 3500 
L 1216 3500 
L 2088 1081 
L 2956 3500 
L 4078 3500 
L 2700 0 
L 1472 0 
L 97 3500 
z
" transform="scale(0.015625)"/>
     <path id="DejaVuSans-Bold-4a" d="M 2919 594 
Q 2688 288 2409 144 
Q 2131 0 1766 0 
Q 1125 0 706 504 
Q 288 1009 288 1791 
Q 288 2575 706 3076 
Q 1125 3578 1766 3578 
Q 2131 3578 2409 3434 
Q 2688 3291 2919 2981 
L 2919 3500 
L 4044 3500 
L 4044 353 
Q 4044 -491 3511 -936 
Q 2978 -1381 1966 -1381 
Q 1638 -1381 1331 -1331 
Q 1025 -1281 716 -1178 
L 716 -306 
Q 1009 -475 1290 -558 
Q 1572 -641 1856 -641 
Q 2406 -641 2662 -400 
Q 2919 -159 2919 353 
L 2919 594 
z
M 2181 2772 
Q 1834 2772 1640 2515 
Q 1447 2259 1447 1791 
Q 1447 1309 1634 1061 
Q 1822 813 2181 813 
Q 2531 813 2725 1069 
Q 2919 1325 2919 1791 
Q 2919 2259 2725 2515 
Q 2531 2772 2181 2772 
z
" transform="scale(0.015625)"/>
    </defs>
    <use xlink:href="#DejaVuSans-Bold-24"/>
    <use xlink:href="#DejaVuSans-Bold-3" transform="translate(77.390625 0)"/>
    <use xlink:href="#DejaVuSans-Bold-50" transform="translate(112.203125 0)"/>
    <use xlink:href="#DejaVuSans-Bold-44" transform="translate(216.40625 0)"/>
    <use xlink:href="#DejaVuSans-Bold-57" transform="translate(283.890625 0)"/>
    <use xlink:href="#DejaVuSans-Bold-55" transform="translate(331.6875 0)"/>
    <use xlink:href="#DejaVuSans-Bold-4c" transform="translate(381 0)"/>
    <use xlink:href="#DejaVuSans-Bold-5b" transform="translate(415.28125 0)"/>
    <use xlink:href="#DejaVuSans-Bold-3" transform="translate(479.78125 0)"/>
    <use xlink:href="#DejaVuSans-Bold-4c" transform="translate(514.59375 0)"/>
    <use xlink:href="#DejaVuSans-Bold-56" transform="translate(548.875 0)"/>
    <use xlink:href="#DejaVuSans-Bold-3" transform="translate(608.390625 0)"/>
    <use xlink:href="#DejaVuSans-Bold-47" transform="translate(643.203125 0)"/>
    <use xlink:href="#DejaVuSans-Bold-48" transform="translate(714.78125 0)"/>
    <use xlink:href="#DejaVuSans-Bold-57" transform="translate(782.609375 0)"/>
    <use xlink:href="#DejaVuSans-Bold-48" transform="translate(830.40625 0)"/>
    <use xlink:href="#DejaVuSans-Bold-55" transform="translate(898.234375 0)"/>
    <use xlink:href="#DejaVuSans-Bold-50" transform="translate(947.546875 0)"/>
    <use xlink:href="#DejaVuSans-Bold-4c" transform="translate(1051.75 0)"/>
    <use xlink:href="#DejaVuSans-Bold-51" transform="translate(1086.03125 0)"/>
    <use xlink:href="#DejaVuSans-Bold-48" transform="translate(1157.21875 0)"/>
    <use xlink:href="#DejaVuSans-Bold-47" transform="translate(1225.046875 0)"/>
    <use xlink:href="#DejaVuSans-Bold-3" transform="translate(1296.625 0)"/>
    <use xlink:href="#DejaVuSans-Bold-45" transform="translate(1331.4375 0)"/>
    <use xlink:href="#DejaVuSans-Bold-5c" transform="translate(1403.015625 0)"/>
    <use xlink:href="#DejaVuSans-Bold-3" transform="translate(1468.203125 0)"/>
    <use xlink:href="#DejaVuSans-Bold-5a" transform="translate(1503.015625 0)"/>
    <use xlink:href="#DejaVuSans-Bold-4b" transform="translate(1595.40625 0)"/>
    <use xlink:href="#DejaVuSans-Bold-48" transform="translate(1666.59375 0)"/>
    <use xlink:href="#DejaVuSans-Bold-55" transform="translate(1734.421875 0)"/>
    <use xlink:href="#DejaVuSans-Bold-48" transform="translate(1783.734375 0)"/>
    <use xlink:href="#DejaVuSans-Bold-3" transform="translate(1851.5625 0)"/>
    <use xlink:href="#DejaVuSans-Bold-57" transform="translate(1886.375 0)"/>
    <use xlink:href="#DejaVuSans-Bold-4b" transform="translate(1934.171875 0)"/>
    <use xlink:href="#DejaVuSans-Bold-48" transform="translate(2005.359375 0)"/>
    <use xlink:href="#DejaVuSans-Bold-3" transform="translate(2073.1875 0)"/>
    <use xlink:href="#DejaVuSans-Bold-45" transform="translate(2108 0)"/>
    <use xlink:href="#DejaVuSans-Bold-44" transform="translate(2179.578125 0)"/>
    <use xlink:href="#DejaVuSans-Bold-56" transform="translate(2247.0625 0)"/>
    <use xlink:href="#DejaVuSans-Bold-4c" transform="translate(2306.578125 0)"/>
    <use xlink:href="#DejaVuSans-Bold-56" transform="translate(2340.859375 0)"/>
    <use xlink:href="#DejaVuSans-Bold-3" transform="translate(2400.375 0)"/>
    <use xlink:href="#DejaVuSans-Bold-59" transform="translate(2435.1875 0)"/>
    <use xlink:href="#DejaVuSans-Bold-48" transform="translate(2500.375 0)"/>
    <use xlink:href="#DejaVuSans-Bold-46" transform="translate(2568.203125 0)"/>
    <use xlink:href="#DejaVuSans-Bold-57" transform="translate(2627.484375 0)"/>
    <use xlink:href="#DejaVuSans-Bold-52" transform="translate(2675.28125 0)"/>
    <use xlink:href="#DejaVuSans-Bold-55" transform="translate(2743.984375 0)"/>
    <use xlink:href="#DejaVuSans-Bold-56" transform="translate(2793.296875 0)"/>
    <use xlink:href="#DejaVuSans-Bold-3" transform="translate(2852.8125 0)"/>
    <use xlink:href="#DejaVuSans-Bold-4a" transform="translate(2887.625 0)"/>
    <use xlink:href="#DejaVuSans-Bold-52" transform="translate(2959.203125 0)"/>
   </g>
  </g>
 </g>
 <defs>
  <clipPath id="p6bbe528121">
   <rect x="22.17625" y="51.079699" width="259.119821" height="259.119821"/>
  </clipPath>
  <clipPath id="p247b69e38a">
   <rect x="385.920538" y="51.079699" width="340.094765" height="259.119821"/>
  </clipPath>
 </defs>
</svg>
