<?xml version="1.0" encoding="utf-8" standalone="no"?>
<!DOCTYPE svg PUBLIC "-//W3C//DTD SVG 1.1//EN"
  "http://www.w3.org/Graphics/SVG/1.1/DTD/svg11.dtd">
<svg xmlns:xlink="http://www.w3.org/1999/xlink" width="814.79952pt" height="368.39952pt" viewBox="0 0 814.79952 368.39952" xmlns="http://www.w3.org/2000/svg" version="1.1">
 <metadata>
  <rdf:RDF xmlns:dc="http://purl.org/dc/elements/1.1/" xmlns:cc="http://creativecommons.org/ns#" xmlns:rdf="http://www.w3.org/1999/02/22-rdf-syntax-ns#">
   <cc:Work>
    <dc:type rdf:resource="http://purl.org/dc/dcmitype/StillImage"/>
    <dc:date>2026-07-20</dc:date>
    <dc:format>image/svg+xml</dc:format>
    <dc:creator>
     <cc:Agent>
      <dc:title>Matplotlib</dc:title>
     </cc:Agent>
    </dc:creator>
   </cc:Work>
  </rdf:RDF>
 </metadata>
 <defs>
  <style type="text/css">*{stroke-linejoin: round; stroke-linecap: butt}</style>
 </defs>
 <g id="figure_1">
  <g id="patch_1">
   <path d="M 0 368.39952 
L 814.79952 368.39952 
L 814.79952 0 
L 0 0 
z
" style="fill: #ffffff"/>
  </g>
  <g id="axes_1">
   <g id="text_1">
    <g id="patch_2">
     <path d="M 75.649952 204.561259 
L 98.829952 204.561259 
Q 109.279952 204.561259 109.279952 194.111259 
L 109.279952 174.156805 
Q 109.279952 163.706805 98.829952 163.706805 
L 75.649952 163.706805 
Q 65.199952 163.706805 65.199952 174.156805 
L 65.199952 194.111259 
Q 65.199952 204.561259 75.649952 204.561259 
z
" style="fill: #ffffff; stroke: #cbd5e1; stroke-width: 1.6; stroke-linejoin: miter"/>
    </g>
    <!-- $\mathbb{R}^{n}$ -->
    <g style="fill: #2563eb" transform="translate(75.649952 189.546805) scale(0.19 -0.19)">
     <defs>
      <path id="STIXGeneral-Italic-2dd" d="M 1229 4179 
L 3360 4179 
Q 3827 4179 4108 3894 
Q 4390 3610 4390 3142 
Q 4390 2554 4060 2186 
Q 3731 1818 3149 1715 
L 4026 0 
L 2925 0 
L 2125 1690 
L 1549 1690 
L 1094 0 
L 109 0 
L 1229 4179 
z
M 3866 3821 
L 3392 2022 
Q 3770 2144 3962 2438 
Q 4154 2733 4154 3136 
Q 4154 3584 3866 3821 
z
M 3142 1978 
L 3648 3872 
Q 3450 3942 3296 3942 
L 2150 3942 
L 1613 1926 
L 2630 1926 
Q 2957 1926 3142 1978 
z
M 3629 237 
L 2899 1696 
Q 2829 1683 2682 1683 
Q 2630 1683 2531 1686 
Q 2432 1690 2387 1690 
L 3072 237 
L 3629 237 
z
M 1907 3942 
L 1408 3942 
L 416 237 
L 915 237 
L 1907 3942 
z
" transform="scale(0.015625)"/>
      <path id="DejaVuSans-Oblique-51" d="M 3566 2113 
L 3156 0 
L 2578 0 
L 2988 2091 
Q 3016 2238 3031 2350 
Q 3047 2463 3047 2528 
Q 3047 2791 2881 2937 
Q 2716 3084 2419 3084 
Q 1956 3084 1622 2776 
Q 1288 2469 1184 1941 
L 800 0 
L 225 0 
L 903 3500 
L 1478 3500 
L 1363 2950 
Q 1603 3253 1940 3418 
Q 2278 3584 2650 3584 
Q 3113 3584 3367 3334 
Q 3622 3084 3622 2631 
Q 3622 2519 3608 2391 
Q 3594 2263 3566 2113 
z
" transform="scale(0.015625)"/>
     </defs>
     <use xlink:href="#STIXGeneral-Italic-2dd" transform="translate(0 0.5)"/>
     <use xlink:href="#DejaVuSans-Oblique-51" transform="translate(74.651394 41.8) scale(0.7)"/>
    </g>
   </g>
   <g id="text_2">
    <g id="patch_3">
     <path d="M 295.75982 204.561259 
L 318.93982 204.561259 
Q 329.38982 204.561259 329.38982 194.111259 
L 329.38982 174.156805 
Q 329.38982 163.706805 318.93982 163.706805 
L 295.75982 163.706805 
Q 285.30982 163.706805 285.30982 174.156805 
L 285.30982 194.111259 
Q 285.30982 204.561259 295.75982 204.561259 
z
" style="fill: #ffffff; stroke: #cbd5e1; stroke-width: 1.6; stroke-linejoin: miter"/>
    </g>
    <!-- $\mathbb{R}^{p}$ -->
    <g style="fill: #334155" transform="translate(295.75982 189.546805) scale(0.19 -0.19)">
     <defs>
      <path id="DejaVuSans-Oblique-53" d="M 3175 2156 
Q 3175 2616 2975 2859 
Q 2775 3103 2400 3103 
Q 2144 3103 1911 2972 
Q 1678 2841 1497 2591 
Q 1319 2344 1212 1994 
Q 1106 1644 1106 1300 
Q 1106 863 1306 627 
Q 1506 391 1875 391 
Q 2147 391 2380 519 
Q 2613 647 2778 891 
Q 2956 1147 3065 1494 
Q 3175 1841 3175 2156 
z
M 1394 2969 
Q 1625 3272 1939 3428 
Q 2253 3584 2638 3584 
Q 3175 3584 3472 3232 
Q 3769 2881 3769 2247 
Q 3769 1728 3584 1258 
Q 3400 788 3053 416 
Q 2822 169 2531 39 
Q 2241 -91 1919 -91 
Q 1547 -91 1294 64 
Q 1041 219 916 525 
L 556 -1331 
L -19 -1331 
L 922 3500 
L 1497 3500 
L 1394 2969 
z
" transform="scale(0.015625)"/>
     </defs>
     <use xlink:href="#STIXGeneral-Italic-2dd" transform="translate(0 0.5)"/>
     <use xlink:href="#DejaVuSans-Oblique-53" transform="translate(74.651394 41.8) scale(0.7)"/>
    </g>
   </g>
   <g id="text_3">
    <g id="patch_4">
     <path d="M 513.589688 204.561259 
L 541.329688 204.561259 
Q 551.779688 204.561259 551.779688 194.111259 
L 551.779688 174.156805 
Q 551.779688 163.706805 541.329688 163.706805 
L 513.589688 163.706805 
Q 503.139688 163.706805 503.139688 174.156805 
L 503.139688 194.111259 
Q 503.139688 204.561259 513.589688 204.561259 
z
" style="fill: #ffffff; stroke: #cbd5e1; stroke-width: 1.6; stroke-linejoin: miter"/>
    </g>
    <!-- $\mathbb{R}^{m}$ -->
    <g style="fill: #059669" transform="translate(513.589688 189.546805) scale(0.19 -0.19)">
     <defs>
      <path id="DejaVuSans-Oblique-50" d="M 5747 2113 
L 5338 0 
L 4763 0 
L 5166 2094 
Q 5191 2228 5203 2325 
Q 5216 2422 5216 2491 
Q 5216 2772 5059 2928 
Q 4903 3084 4622 3084 
Q 4203 3084 3875 2770 
Q 3547 2456 3450 1953 
L 3066 0 
L 2491 0 
L 2900 2094 
Q 2925 2209 2937 2307 
Q 2950 2406 2950 2484 
Q 2950 2769 2794 2926 
Q 2638 3084 2363 3084 
Q 1938 3084 1609 2770 
Q 1281 2456 1184 1953 
L 800 0 
L 225 0 
L 909 3500 
L 1484 3500 
L 1375 2956 
Q 1609 3263 1923 3423 
Q 2238 3584 2597 3584 
Q 2978 3584 3223 3384 
Q 3469 3184 3519 2828 
Q 3781 3197 4126 3390 
Q 4472 3584 4856 3584 
Q 5306 3584 5551 3325 
Q 5797 3066 5797 2591 
Q 5797 2488 5784 2364 
Q 5772 2241 5747 2113 
z
" transform="scale(0.015625)"/>
     </defs>
     <use xlink:href="#STIXGeneral-Italic-2dd" transform="translate(0 0.5)"/>
     <use xlink:href="#DejaVuSans-Oblique-50" transform="translate(74.651394 41.8) scale(0.7)"/>
    </g>
   </g>
   <g id="patch_5">
    <path d="M 142.596563 184.134032 
Q 197.292068 184.134032 249.527899 184.134032 
" style="fill: none; stroke: #2563eb; stroke-width: 2.2; stroke-linecap: round"/>
    <path d="M 245.527899 182.134032 
L 249.527899 184.134032 
L 245.527899 186.134032 
" style="fill: none; stroke: #2563eb; stroke-width: 2.2; stroke-linecap: round"/>
   </g>
   <g id="text_4">
    <g id="patch_6">
     <path d="M 190.749886 171.550901 
L 203.839886 171.550901 
Q 213.189886 171.550901 213.189886 162.200901 
L 213.189886 145.200901 
Q 213.189886 135.850901 203.839886 135.850901 
L 190.749886 135.850901 
Q 181.399886 135.850901 181.399886 145.200901 
L 181.399886 162.200901 
Q 181.399886 171.550901 190.749886 171.550901 
z
" style="fill: #fff7ed; stroke: #ea580c; stroke-width: 1.8; stroke-linejoin: miter"/>
    </g>
    <!-- $\mathbf{B}$ -->
    <g style="fill: #2563eb" transform="translate(190.749886 158.116917) scale(0.17 -0.17)">
     <defs>
      <path id="DejaVuSans-Bold-25" d="M 2456 2859 
Q 2741 2859 2887 2984 
Q 3034 3109 3034 3353 
Q 3034 3594 2887 3720 
Q 2741 3847 2456 3847 
L 1791 3847 
L 1791 2859 
L 2456 2859 
z
M 2497 819 
Q 2859 819 3042 972 
Q 3225 1125 3225 1434 
Q 3225 1738 3044 1889 
Q 2863 2041 2497 2041 
L 1791 2041 
L 1791 819 
L 2497 819 
z
M 3616 2497 
Q 4003 2384 4215 2081 
Q 4428 1778 4428 1338 
Q 4428 663 3972 331 
Q 3516 0 2584 0 
L 588 0 
L 588 4666 
L 2394 4666 
Q 3366 4666 3802 4372 
Q 4238 4078 4238 3431 
Q 4238 3091 4078 2852 
Q 3919 2613 3616 2497 
z
" transform="scale(0.015625)"/>
     </defs>
     <use xlink:href="#DejaVuSans-Bold-25" transform="translate(0 0.09375)"/>
    </g>
   </g>
   <g id="text_5">
    <!-- $p\times n$ -->
    <g style="fill: #334155" transform="translate(183.544886 222.957881) scale(0.11 -0.11)">
     <defs>
      <path id="DejaVuSans-99" d="M 4488 3438 
L 3059 2003 
L 4488 575 
L 4116 197 
L 2681 1631 
L 1247 197 
L 878 575 
L 2303 2003 
L 878 3438 
L 1247 3816 
L 2681 2381 
L 4116 3816 
L 4488 3438 
z
" transform="scale(0.015625)"/>
     </defs>
     <use xlink:href="#DejaVuSans-Oblique-53" transform="translate(0 0.375)"/>
     <use xlink:href="#DejaVuSans-99" transform="translate(82.958984 0.375)"/>
     <use xlink:href="#DejaVuSans-Oblique-51" transform="translate(186.230469 0.375)"/>
    </g>
   </g>
   <g id="patch_7">
    <path d="M 362.706431 184.134032 
Q 417.401936 184.134032 469.637767 184.134032 
" style="fill: none; stroke: #ea580c; stroke-width: 2.2; stroke-linecap: round"/>
    <path d="M 465.637767 182.134032 
L 469.637767 184.134032 
L 465.637767 186.134032 
" style="fill: none; stroke: #ea580c; stroke-width: 2.2; stroke-linecap: round"/>
   </g>
   <g id="text_6">
    <g id="patch_8">
     <path d="M 410.774754 171.550901 
L 424.034754 171.550901 
Q 433.384754 171.550901 433.384754 162.200901 
L 433.384754 145.200901 
Q 433.384754 135.850901 424.034754 135.850901 
L 410.774754 135.850901 
Q 401.424754 135.850901 401.424754 145.200901 
L 401.424754 162.200901 
Q 401.424754 171.550901 410.774754 171.550901 
z
" style="fill: #fff7ed; stroke: #ea580c; stroke-width: 1.8; stroke-linejoin: miter"/>
    </g>
    <!-- $\mathbf{A}$ -->
    <g style="fill: #ea580c" transform="translate(410.774754 158.116917) scale(0.17 -0.17)">
     <defs>
      <path id="DejaVuSans-Bold-24" d="M 3419 850 
L 1538 850 
L 1241 0 
L 31 0 
L 1759 4666 
L 3194 4666 
L 4922 0 
L 3713 0 
L 3419 850 
z
M 1838 1716 
L 3116 1716 
L 2478 3572 
L 1838 1716 
z
" transform="scale(0.015625)"/>
     </defs>
     <use xlink:href="#DejaVuSans-Bold-24" transform="translate(0 0.09375)"/>
    </g>
   </g>
   <g id="text_7">
    <!-- $m\times p$ -->
    <g style="fill: #334155" transform="translate(401.784754 222.957881) scale(0.11 -0.11)">
     <use xlink:href="#DejaVuSans-Oblique-50" transform="translate(0 0.375)"/>
     <use xlink:href="#DejaVuSans-99" transform="translate(116.894531 0.375)"/>
     <use xlink:href="#DejaVuSans-Oblique-53" transform="translate(220.166016 0.375)"/>
    </g>
   </g>
   <g id="patch_9">
    <path d="M 122.393811 136.239331 
Q 307.348504 48.318571 489.879784 135.086094 
" style="fill: none; stroke: #059669; stroke-width: 2.4; stroke-linecap: round"/>
    <path d="M 487.125814 131.56251 
L 489.879784 135.086094 
L 485.408535 135.17512 
" style="fill: none; stroke: #059669; stroke-width: 2.4; stroke-linecap: round"/>
   </g>
   <g id="text_8">
    <g id="patch_10">
     <path d="M 293.48982 100.668047 
L 321.20982 100.668047 
Q 331.10982 100.668047 331.10982 90.768047 
L 331.10982 72.768047 
Q 331.10982 62.868047 321.20982 62.868047 
L 293.48982 62.868047 
Q 283.58982 62.868047 283.58982 72.768047 
L 283.58982 90.768047 
Q 283.58982 100.668047 293.48982 100.668047 
z
" style="fill: #ffffff; stroke: #cbd5e1; stroke-width: 1.6; stroke-linejoin: miter"/>
    </g>
    <!-- $\mathbf{A}\mathbf{B}$ -->
    <g style="fill: #059669" transform="translate(293.48982 86.443828) scale(0.18 -0.18)">
     <use xlink:href="#DejaVuSans-Bold-24" transform="translate(0 0.09375)"/>
     <use xlink:href="#DejaVuSans-Bold-25" transform="translate(77.392578 0.09375)"/>
    </g>
   </g>
   <g id="text_9">
    <!-- $m\times n$ -->
    <g style="fill: #334155" transform="translate(291.72982 117.825248) scale(0.11 -0.11)">
     <use xlink:href="#DejaVuSans-Oblique-50" transform="translate(0 0.375)"/>
     <use xlink:href="#DejaVuSans-99" transform="translate(116.894531 0.375)"/>
     <use xlink:href="#DejaVuSans-Oblique-51" transform="translate(220.166016 0.375)"/>
    </g>
   </g>
   <g id="text_10">
    <!-- The right matrix acts first -->
    <g style="fill: #334155" transform="translate(563.671801 156.818557) scale(0.12 -0.12)">
     <defs>
      <path id="DejaVuSans-Bold-37" d="M 31 4666 
L 4331 4666 
L 4331 3756 
L 2784 3756 
L 2784 0 
L 1581 0 
L 1581 3756 
L 31 3756 
L 31 4666 
z
" transform="scale(0.015625)"/>
      <path id="DejaVuSans-Bold-4b" d="M 4056 2131 
L 4056 0 
L 2931 0 
L 2931 347 
L 2931 1625 
Q 2931 2084 2911 2256 
Q 2891 2428 2841 2509 
Q 2775 2619 2662 2680 
Q 2550 2741 2406 2741 
Q 2056 2741 1856 2470 
Q 1656 2200 1656 1722 
L 1656 0 
L 538 0 
L 538 4863 
L 1656 4863 
L 1656 2988 
Q 1909 3294 2193 3439 
Q 2478 3584 2822 3584 
Q 3428 3584 3742 3212 
Q 4056 2841 4056 2131 
z
" transform="scale(0.015625)"/>
      <path id="DejaVuSans-Bold-48" d="M 4031 1759 
L 4031 1441 
L 1416 1441 
Q 1456 1047 1700 850 
Q 1944 653 2381 653 
Q 2734 653 3104 758 
Q 3475 863 3866 1075 
L 3866 213 
Q 3469 63 3072 -14 
Q 2675 -91 2278 -91 
Q 1328 -91 801 392 
Q 275 875 275 1747 
Q 275 2603 792 3093 
Q 1309 3584 2216 3584 
Q 3041 3584 3536 3087 
Q 4031 2591 4031 1759 
z
M 2881 2131 
Q 2881 2450 2695 2645 
Q 2509 2841 2209 2841 
Q 1884 2841 1681 2658 
Q 1478 2475 1428 2131 
L 2881 2131 
z
" transform="scale(0.015625)"/>
      <path id="DejaVuSans-Bold-3" transform="scale(0.015625)"/>
      <path id="DejaVuSans-Bold-55" d="M 3138 2547 
Q 2991 2616 2845 2648 
Q 2700 2681 2553 2681 
Q 2122 2681 1889 2404 
Q 1656 2128 1656 1613 
L 1656 0 
L 538 0 
L 538 3500 
L 1656 3500 
L 1656 2925 
Q 1872 3269 2151 3426 
Q 2431 3584 2822 3584 
Q 2878 3584 2943 3579 
Q 3009 3575 3134 3559 
L 3138 2547 
z
" transform="scale(0.015625)"/>
      <path id="DejaVuSans-Bold-4c" d="M 538 3500 
L 1656 3500 
L 1656 0 
L 538 0 
L 538 3500 
z
M 538 4863 
L 1656 4863 
L 1656 3950 
L 538 3950 
L 538 4863 
z
" transform="scale(0.015625)"/>
      <path id="DejaVuSans-Bold-4a" d="M 2919 594 
Q 2688 288 2409 144 
Q 2131 0 1766 0 
Q 1125 0 706 504 
Q 288 1009 288 1791 
Q 288 2575 706 3076 
Q 1125 3578 1766 3578 
Q 2131 3578 2409 3434 
Q 2688 3291 2919 2981 
L 2919 3500 
L 4044 3500 
L 4044 353 
Q 4044 -491 3511 -936 
Q 2978 -1381 1966 -1381 
Q 1638 -1381 1331 -1331 
Q 1025 -1281 716 -1178 
L 716 -306 
Q 1009 -475 1290 -558 
Q 1572 -641 1856 -641 
Q 2406 -641 2662 -400 
Q 2919 -159 2919 353 
L 2919 594 
z
M 2181 2772 
Q 1834 2772 1640 2515 
Q 1447 2259 1447 1791 
Q 1447 1309 1634 1061 
Q 1822 813 2181 813 
Q 2531 813 2725 1069 
Q 2919 1325 2919 1791 
Q 2919 2259 2725 2515 
Q 2531 2772 2181 2772 
z
" transform="scale(0.015625)"/>
      <path id="DejaVuSans-Bold-57" d="M 1759 4494 
L 1759 3500 
L 2913 3500 
L 2913 2700 
L 1759 2700 
L 1759 1216 
Q 1759 972 1856 886 
Q 1953 800 2241 800 
L 2816 800 
L 2816 0 
L 1856 0 
Q 1194 0 917 276 
Q 641 553 641 1216 
L 641 2700 
L 84 2700 
L 84 3500 
L 641 3500 
L 641 4494 
L 1759 4494 
z
" transform="scale(0.015625)"/>
      <path id="DejaVuSans-Bold-50" d="M 3781 2919 
Q 3994 3244 4286 3414 
Q 4578 3584 4928 3584 
Q 5531 3584 5847 3212 
Q 6163 2841 6163 2131 
L 6163 0 
L 5038 0 
L 5038 1825 
Q 5041 1866 5042 1909 
Q 5044 1953 5044 2034 
Q 5044 2406 4934 2573 
Q 4825 2741 4581 2741 
Q 4263 2741 4089 2478 
Q 3916 2216 3909 1719 
L 3909 0 
L 2784 0 
L 2784 1825 
Q 2784 2406 2684 2573 
Q 2584 2741 2328 2741 
Q 2006 2741 1831 2477 
Q 1656 2213 1656 1722 
L 1656 0 
L 531 0 
L 531 3500 
L 1656 3500 
L 1656 2988 
Q 1863 3284 2130 3434 
Q 2397 3584 2719 3584 
Q 3081 3584 3359 3409 
Q 3638 3234 3781 2919 
z
" transform="scale(0.015625)"/>
      <path id="DejaVuSans-Bold-44" d="M 2106 1575 
Q 1756 1575 1579 1456 
Q 1403 1338 1403 1106 
Q 1403 894 1545 773 
Q 1688 653 1941 653 
Q 2256 653 2472 879 
Q 2688 1106 2688 1447 
L 2688 1575 
L 2106 1575 
z
M 3816 1997 
L 3816 0 
L 2688 0 
L 2688 519 
Q 2463 200 2181 54 
Q 1900 -91 1497 -91 
Q 953 -91 614 226 
Q 275 544 275 1050 
Q 275 1666 698 1953 
Q 1122 2241 2028 2241 
L 2688 2241 
L 2688 2328 
Q 2688 2594 2478 2717 
Q 2269 2841 1825 2841 
Q 1466 2841 1156 2769 
Q 847 2697 581 2553 
L 581 3406 
Q 941 3494 1303 3539 
Q 1666 3584 2028 3584 
Q 2975 3584 3395 3211 
Q 3816 2838 3816 1997 
z
" transform="scale(0.015625)"/>
      <path id="DejaVuSans-Bold-5b" d="M 1422 1791 
L 159 3500 
L 1344 3500 
L 2059 2463 
L 2784 3500 
L 3969 3500 
L 2706 1797 
L 4031 0 
L 2847 0 
L 2059 1106 
L 1281 0 
L 97 0 
L 1422 1791 
z
" transform="scale(0.015625)"/>
      <path id="DejaVuSans-Bold-46" d="M 3366 3391 
L 3366 2478 
Q 3138 2634 2908 2709 
Q 2678 2784 2431 2784 
Q 1963 2784 1702 2511 
Q 1441 2238 1441 1747 
Q 1441 1256 1702 982 
Q 1963 709 2431 709 
Q 2694 709 2930 787 
Q 3166 866 3366 1019 
L 3366 103 
Q 3103 6 2833 -42 
Q 2563 -91 2291 -91 
Q 1344 -91 809 395 
Q 275 881 275 1747 
Q 275 2613 809 3098 
Q 1344 3584 2291 3584 
Q 2566 3584 2833 3536 
Q 3100 3488 3366 3391 
z
" transform="scale(0.015625)"/>
      <path id="DejaVuSans-Bold-56" d="M 3272 3391 
L 3272 2541 
Q 2913 2691 2578 2766 
Q 2244 2841 1947 2841 
Q 1628 2841 1473 2761 
Q 1319 2681 1319 2516 
Q 1319 2381 1436 2309 
Q 1553 2238 1856 2203 
L 2053 2175 
Q 2913 2066 3209 1816 
Q 3506 1566 3506 1031 
Q 3506 472 3093 190 
Q 2681 -91 1863 -91 
Q 1516 -91 1145 -36 
Q 775 19 384 128 
L 384 978 
Q 719 816 1070 734 
Q 1422 653 1784 653 
Q 2113 653 2278 743 
Q 2444 834 2444 1013 
Q 2444 1163 2330 1236 
Q 2216 1309 1875 1350 
L 1678 1375 
Q 931 1469 631 1722 
Q 331 1975 331 2491 
Q 331 3047 712 3315 
Q 1094 3584 1881 3584 
Q 2191 3584 2531 3537 
Q 2872 3491 3272 3391 
z
" transform="scale(0.015625)"/>
      <path id="DejaVuSans-Bold-13ab" d="M 3078 4863 
L 4206 4863 
L 4206 3950 
L 3078 3950 
L 3078 4863 
z
M 2847 4863 
L 2847 4128 
L 2228 4128 
Q 1994 4128 1903 4042 
Q 1813 3956 1813 3744 
L 1813 3500 
L 4206 3500 
L 4206 0 
L 3078 0 
L 3078 2700 
L 1813 2700 
L 1813 0 
L 684 0 
L 684 2700 
L 134 2700 
L 134 3500 
L 684 3500 
L 684 3744 
Q 684 4316 1003 4589 
Q 1322 4863 1991 4863 
L 2847 4863 
z
" transform="scale(0.015625)"/>
     </defs>
     <use xlink:href="#DejaVuSans-Bold-37"/>
     <use xlink:href="#DejaVuSans-Bold-4b" transform="translate(68.21875 0)"/>
     <use xlink:href="#DejaVuSans-Bold-48" transform="translate(139.40625 0)"/>
     <use xlink:href="#DejaVuSans-Bold-3" transform="translate(207.234375 0)"/>
     <use xlink:href="#DejaVuSans-Bold-55" transform="translate(242.046875 0)"/>
     <use xlink:href="#DejaVuSans-Bold-4c" transform="translate(291.359375 0)"/>
     <use xlink:href="#DejaVuSans-Bold-4a" transform="translate(325.640625 0)"/>
     <use xlink:href="#DejaVuSans-Bold-4b" transform="translate(397.21875 0)"/>
     <use xlink:href="#DejaVuSans-Bold-57" transform="translate(468.40625 0)"/>
     <use xlink:href="#DejaVuSans-Bold-3" transform="translate(516.203125 0)"/>
     <use xlink:href="#DejaVuSans-Bold-50" transform="translate(551.015625 0)"/>
     <use xlink:href="#DejaVuSans-Bold-44" transform="translate(655.21875 0)"/>
     <use xlink:href="#DejaVuSans-Bold-57" transform="translate(722.703125 0)"/>
     <use xlink:href="#DejaVuSans-Bold-55" transform="translate(770.5 0)"/>
     <use xlink:href="#DejaVuSans-Bold-4c" transform="translate(819.8125 0)"/>
     <use xlink:href="#DejaVuSans-Bold-5b" transform="translate(854.09375 0)"/>
     <use xlink:href="#DejaVuSans-Bold-3" transform="translate(918.59375 0)"/>
     <use xlink:href="#DejaVuSans-Bold-44" transform="translate(953.40625 0)"/>
     <use xlink:href="#DejaVuSans-Bold-46" transform="translate(1020.890625 0)"/>
     <use xlink:href="#DejaVuSans-Bold-57" transform="translate(1080.171875 0)"/>
     <use xlink:href="#DejaVuSans-Bold-56" transform="translate(1127.96875 0)"/>
     <use xlink:href="#DejaVuSans-Bold-3" transform="translate(1187.484375 0)"/>
     <use xlink:href="#DejaVuSans-Bold-13ab" transform="translate(1222.296875 0)"/>
     <use xlink:href="#DejaVuSans-Bold-55" transform="translate(1296.421875 0)"/>
     <use xlink:href="#DejaVuSans-Bold-56" transform="translate(1345.734375 0)"/>
     <use xlink:href="#DejaVuSans-Bold-57" transform="translate(1405.25 0)"/>
    </g>
   </g>
   <g id="text_11">
    <!-- $\mathbf{x}\mapsto\mathbf{B}\mathbf{x}\mapsto\mathbf{A}(\mathbf{B}\mathbf{x})$ -->
    <g style="fill: #334155" transform="translate(606.034614 192.785922) scale(0.12 -0.12)">
     <defs>
      <path id="DejaVuSans-c30" d="M 4175 1741 
L 897 1741 
L 897 663 
L 366 663 
L 366 3350 
L 897 3350 
L 897 2272 
L 4175 2272 
L 3447 3000 
L 3822 3375 
L 5050 2147 
L 5050 1866 
L 3822 638 
L 3447 1013 
L 4175 1741 
z
" transform="scale(0.015625)"/>
      <path id="DejaVuSans-b" d="M 1984 4856 
Q 1566 4138 1362 3434 
Q 1159 2731 1159 2009 
Q 1159 1288 1364 580 
Q 1569 -128 1984 -844 
L 1484 -844 
Q 1016 -109 783 600 
Q 550 1309 550 2009 
Q 550 2706 781 3412 
Q 1013 4119 1484 4856 
L 1984 4856 
z
" transform="scale(0.015625)"/>
      <path id="DejaVuSans-c" d="M 513 4856 
L 1013 4856 
Q 1481 4119 1714 3412 
Q 1947 2706 1947 2009 
Q 1947 1309 1714 600 
Q 1481 -109 1013 -844 
L 513 -844 
Q 928 -128 1133 580 
Q 1338 1288 1338 2009 
Q 1338 2731 1133 3434 
Q 928 4138 513 4856 
z
" transform="scale(0.015625)"/>
     </defs>
     <use xlink:href="#DejaVuSans-Bold-5b" transform="translate(0 0.125)"/>
     <use xlink:href="#DejaVuSans-c30" transform="translate(83.984375 0.125)"/>
     <use xlink:href="#DejaVuSans-Bold-25" transform="translate(187.255859 0.125)"/>
     <use xlink:href="#DejaVuSans-Bold-5b" transform="translate(263.476562 0.125)"/>
     <use xlink:href="#DejaVuSans-c30" transform="translate(347.460938 0.125)"/>
     <use xlink:href="#DejaVuSans-Bold-24" transform="translate(450.732422 0.125)"/>
     <use xlink:href="#DejaVuSans-b" transform="translate(528.125 0.125)"/>
     <use xlink:href="#DejaVuSans-Bold-25" transform="translate(567.138672 0.125)"/>
     <use xlink:href="#DejaVuSans-Bold-5b" transform="translate(643.359375 0.125)"/>
     <use xlink:href="#DejaVuSans-c" transform="translate(707.861328 0.125)"/>
    </g>
   </g>
   <g id="text_12">
    <!-- $=\,(\mathbf{A}\mathbf{B})\mathbf{x}$ -->
    <g style="fill: #059669" transform="translate(622.514614 229.012232) scale(0.13 -0.13)">
     <defs>
      <path id="DejaVuSans-20" d="M 678 2906 
L 4684 2906 
L 4684 2381 
L 678 2381 
L 678 2906 
z
M 678 1631 
L 4684 1631 
L 4684 1100 
L 678 1100 
L 678 1631 
z
" transform="scale(0.015625)"/>
     </defs>
     <use xlink:href="#DejaVuSans-20" transform="translate(19.482422 0.125)"/>
     <use xlink:href="#DejaVuSans-b" transform="translate(138.989583 0.125)"/>
     <use xlink:href="#DejaVuSans-Bold-24" transform="translate(178.003254 0.125)"/>
     <use xlink:href="#DejaVuSans-Bold-25" transform="translate(255.395833 0.125)"/>
     <use xlink:href="#DejaVuSans-c" transform="translate(331.616536 0.125)"/>
     <use xlink:href="#DejaVuSans-Bold-5b" transform="translate(370.630208 0.125)"/>
    </g>
   </g>
  </g>
  <g id="text_13">
   <!-- Matrix multiplication records the composition of two linear maps -->
   <g transform="translate(113.73226 19.3575) scale(0.16 -0.16)">
    <defs>
     <path id="DejaVuSans-Bold-30" d="M 588 4666 
L 2119 4666 
L 3181 2169 
L 4250 4666 
L 5778 4666 
L 5778 0 
L 4641 0 
L 4641 3413 
L 3566 897 
L 2803 897 
L 1728 3413 
L 1728 0 
L 588 0 
L 588 4666 
z
" transform="scale(0.015625)"/>
     <path id="DejaVuSans-Bold-58" d="M 500 1363 
L 500 3500 
L 1625 3500 
L 1625 3150 
Q 1625 2866 1622 2436 
Q 1619 2006 1619 1863 
Q 1619 1441 1641 1255 
Q 1663 1069 1716 984 
Q 1784 875 1895 815 
Q 2006 756 2150 756 
Q 2500 756 2700 1025 
Q 2900 1294 2900 1772 
L 2900 3500 
L 4019 3500 
L 4019 0 
L 2900 0 
L 2900 506 
Q 2647 200 2364 54 
Q 2081 -91 1741 -91 
Q 1134 -91 817 281 
Q 500 653 500 1363 
z
" transform="scale(0.015625)"/>
     <path id="DejaVuSans-Bold-4f" d="M 538 4863 
L 1656 4863 
L 1656 0 
L 538 0 
L 538 4863 
z
" transform="scale(0.015625)"/>
     <path id="DejaVuSans-Bold-53" d="M 1656 506 
L 1656 -1331 
L 538 -1331 
L 538 3500 
L 1656 3500 
L 1656 2988 
Q 1888 3294 2169 3439 
Q 2450 3584 2816 3584 
Q 3463 3584 3878 3070 
Q 4294 2556 4294 1747 
Q 4294 938 3878 423 
Q 3463 -91 2816 -91 
Q 2450 -91 2169 54 
Q 1888 200 1656 506 
z
M 2400 2772 
Q 2041 2772 1848 2508 
Q 1656 2244 1656 1747 
Q 1656 1250 1848 986 
Q 2041 722 2400 722 
Q 2759 722 2948 984 
Q 3138 1247 3138 1747 
Q 3138 2247 2948 2509 
Q 2759 2772 2400 2772 
z
" transform="scale(0.015625)"/>
     <path id="DejaVuSans-Bold-52" d="M 2203 2784 
Q 1831 2784 1636 2517 
Q 1441 2250 1441 1747 
Q 1441 1244 1636 976 
Q 1831 709 2203 709 
Q 2569 709 2762 976 
Q 2956 1244 2956 1747 
Q 2956 2250 2762 2517 
Q 2569 2784 2203 2784 
z
M 2203 3584 
Q 3106 3584 3614 3096 
Q 4122 2609 4122 1747 
Q 4122 884 3614 396 
Q 3106 -91 2203 -91 
Q 1297 -91 786 396 
Q 275 884 275 1747 
Q 275 2609 786 3096 
Q 1297 3584 2203 3584 
z
" transform="scale(0.015625)"/>
     <path id="DejaVuSans-Bold-51" d="M 4056 2131 
L 4056 0 
L 2931 0 
L 2931 347 
L 2931 1631 
Q 2931 2084 2911 2256 
Q 2891 2428 2841 2509 
Q 2775 2619 2662 2680 
Q 2550 2741 2406 2741 
Q 2056 2741 1856 2470 
Q 1656 2200 1656 1722 
L 1656 0 
L 538 0 
L 538 3500 
L 1656 3500 
L 1656 2988 
Q 1909 3294 2193 3439 
Q 2478 3584 2822 3584 
Q 3428 3584 3742 3212 
Q 4056 2841 4056 2131 
z
" transform="scale(0.015625)"/>
     <path id="DejaVuSans-Bold-47" d="M 2919 2988 
L 2919 4863 
L 4044 4863 
L 4044 0 
L 2919 0 
L 2919 506 
Q 2688 197 2409 53 
Q 2131 -91 1766 -91 
Q 1119 -91 703 423 
Q 288 938 288 1747 
Q 288 2556 703 3070 
Q 1119 3584 1766 3584 
Q 2128 3584 2408 3439 
Q 2688 3294 2919 2988 
z
M 2181 722 
Q 2541 722 2730 984 
Q 2919 1247 2919 1747 
Q 2919 2247 2730 2509 
Q 2541 2772 2181 2772 
Q 1825 2772 1636 2509 
Q 1447 2247 1447 1747 
Q 1447 1247 1636 984 
Q 1825 722 2181 722 
z
" transform="scale(0.015625)"/>
     <path id="DejaVuSans-Bold-49" d="M 2841 4863 
L 2841 4128 
L 2222 4128 
Q 1984 4128 1890 4042 
Q 1797 3956 1797 3744 
L 1797 3500 
L 2753 3500 
L 2753 2700 
L 1797 2700 
L 1797 0 
L 678 0 
L 678 2700 
L 122 2700 
L 122 3500 
L 678 3500 
L 678 3744 
Q 678 4316 997 4589 
Q 1316 4863 1984 4863 
L 2841 4863 
z
" transform="scale(0.015625)"/>
     <path id="DejaVuSans-Bold-5a" d="M 225 3500 
L 1313 3500 
L 1900 1088 
L 2491 3500 
L 3425 3500 
L 4013 1113 
L 4603 3500 
L 5691 3500 
L 4769 0 
L 3547 0 
L 2956 2406 
L 2369 0 
L 1147 0 
L 225 3500 
z
" transform="scale(0.015625)"/>
    </defs>
    <use xlink:href="#DejaVuSans-Bold-30"/>
    <use xlink:href="#DejaVuSans-Bold-44" transform="translate(99.515625 0)"/>
    <use xlink:href="#DejaVuSans-Bold-57" transform="translate(167 0)"/>
    <use xlink:href="#DejaVuSans-Bold-55" transform="translate(214.796875 0)"/>
    <use xlink:href="#DejaVuSans-Bold-4c" transform="translate(264.109375 0)"/>
    <use xlink:href="#DejaVuSans-Bold-5b" transform="translate(298.390625 0)"/>
    <use xlink:href="#DejaVuSans-Bold-3" transform="translate(362.890625 0)"/>
    <use xlink:href="#DejaVuSans-Bold-50" transform="translate(397.703125 0)"/>
    <use xlink:href="#DejaVuSans-Bold-58" transform="translate(501.90625 0)"/>
    <use xlink:href="#DejaVuSans-Bold-4f" transform="translate(573.09375 0)"/>
    <use xlink:href="#DejaVuSans-Bold-57" transform="translate(607.375 0)"/>
    <use xlink:href="#DejaVuSans-Bold-4c" transform="translate(655.171875 0)"/>
    <use xlink:href="#DejaVuSans-Bold-53" transform="translate(689.453125 0)"/>
    <use xlink:href="#DejaVuSans-Bold-4f" transform="translate(761.03125 0)"/>
    <use xlink:href="#DejaVuSans-Bold-4c" transform="translate(795.3125 0)"/>
    <use xlink:href="#DejaVuSans-Bold-46" transform="translate(829.59375 0)"/>
    <use xlink:href="#DejaVuSans-Bold-44" transform="translate(888.875 0)"/>
    <use xlink:href="#DejaVuSans-Bold-57" transform="translate(956.359375 0)"/>
    <use xlink:href="#DejaVuSans-Bold-4c" transform="translate(1004.15625 0)"/>
    <use xlink:href="#DejaVuSans-Bold-52" transform="translate(1038.4375 0)"/>
    <use xlink:href="#DejaVuSans-Bold-51" transform="translate(1107.140625 0)"/>
    <use xlink:href="#DejaVuSans-Bold-3" transform="translate(1178.328125 0)"/>
    <use xlink:href="#DejaVuSans-Bold-55" transform="translate(1213.140625 0)"/>
    <use xlink:href="#DejaVuSans-Bold-48" transform="translate(1262.453125 0)"/>
    <use xlink:href="#DejaVuSans-Bold-46" transform="translate(1330.28125 0)"/>
    <use xlink:href="#DejaVuSans-Bold-52" transform="translate(1389.5625 0)"/>
    <use xlink:href="#DejaVuSans-Bold-55" transform="translate(1458.265625 0)"/>
    <use xlink:href="#DejaVuSans-Bold-47" transform="translate(1507.578125 0)"/>
    <use xlink:href="#DejaVuSans-Bold-56" transform="translate(1579.15625 0)"/>
    <use xlink:href="#DejaVuSans-Bold-3" transform="translate(1638.671875 0)"/>
    <use xlink:href="#DejaVuSans-Bold-57" transform="translate(1673.484375 0)"/>
    <use xlink:href="#DejaVuSans-Bold-4b" transform="translate(1721.28125 0)"/>
    <use xlink:href="#DejaVuSans-Bold-48" transform="translate(1792.46875 0)"/>
    <use xlink:href="#DejaVuSans-Bold-3" transform="translate(1860.296875 0)"/>
    <use xlink:href="#DejaVuSans-Bold-46" transform="translate(1895.109375 0)"/>
    <use xlink:href="#DejaVuSans-Bold-52" transform="translate(1954.390625 0)"/>
    <use xlink:href="#DejaVuSans-Bold-50" transform="translate(2023.09375 0)"/>
    <use xlink:href="#DejaVuSans-Bold-53" transform="translate(2127.296875 0)"/>
    <use xlink:href="#DejaVuSans-Bold-52" transform="translate(2198.875 0)"/>
    <use xlink:href="#DejaVuSans-Bold-56" transform="translate(2267.578125 0)"/>
    <use xlink:href="#DejaVuSans-Bold-4c" transform="translate(2327.09375 0)"/>
    <use xlink:href="#DejaVuSans-Bold-57" transform="translate(2361.375 0)"/>
    <use xlink:href="#DejaVuSans-Bold-4c" transform="translate(2409.171875 0)"/>
    <use xlink:href="#DejaVuSans-Bold-52" transform="translate(2443.453125 0)"/>
    <use xlink:href="#DejaVuSans-Bold-51" transform="translate(2512.15625 0)"/>
    <use xlink:href="#DejaVuSans-Bold-3" transform="translate(2583.34375 0)"/>
    <use xlink:href="#DejaVuSans-Bold-52" transform="translate(2618.15625 0)"/>
    <use xlink:href="#DejaVuSans-Bold-49" transform="translate(2686.859375 0)"/>
    <use xlink:href="#DejaVuSans-Bold-3" transform="translate(2730.359375 0)"/>
    <use xlink:href="#DejaVuSans-Bold-57" transform="translate(2765.171875 0)"/>
    <use xlink:href="#DejaVuSans-Bold-5a" transform="translate(2812.96875 0)"/>
    <use xlink:href="#DejaVuSans-Bold-52" transform="translate(2905.359375 0)"/>
    <use xlink:href="#DejaVuSans-Bold-3" transform="translate(2974.0625 0)"/>
    <use xlink:href="#DejaVuSans-Bold-4f" transform="translate(3008.875 0)"/>
    <use xlink:href="#DejaVuSans-Bold-4c" transform="translate(3043.15625 0)"/>
    <use xlink:href="#DejaVuSans-Bold-51" transform="translate(3077.4375 0)"/>
    <use xlink:href="#DejaVuSans-Bold-48" transform="translate(3148.625 0)"/>
    <use xlink:href="#DejaVuSans-Bold-44" transform="translate(3216.453125 0)"/>
    <use xlink:href="#DejaVuSans-Bold-55" transform="translate(3283.9375 0)"/>
    <use xlink:href="#DejaVuSans-Bold-3" transform="translate(3333.25 0)"/>
    <use xlink:href="#DejaVuSans-Bold-50" transform="translate(3368.0625 0)"/>
    <use xlink:href="#DejaVuSans-Bold-44" transform="translate(3472.265625 0)"/>
    <use xlink:href="#DejaVuSans-Bold-53" transform="translate(3539.75 0)"/>
    <use xlink:href="#DejaVuSans-Bold-56" transform="translate(3611.328125 0)"/>
   </g>
  </g>
 </g>
</svg>
